<svg width="380" height="100" fill="none" xmlns="http://www.w3.org/2000/svg"><g clip-path="url(#a)"><path d="M4.166 54.057a4.16 4.16 0 0 0 4.166-4.153 4.16 4.16 0 0 0-4.166-4.153A4.16 4.16 0 0 0 0 49.904a4.16 4.16 0 0 0 4.166 4.152M22.91 54.057a4.16 4.16 0 0 0 4.166-4.153 4.16 4.16 0 0 0-4.166-4.153 4.16 4.16 0 0 0-4.166 4.153 4.16 4.16 0 0 0 4.166 4.152M15.232 66.307a4.16 4.16 0 0 0 4.166-4.153 4.16 4.16 0 0 0-4.166-4.152 4.16 4.16 0 0 0-4.166 4.152 4.16 4.16 0 0 0 4.166 4.153M28.713 71.627a4.16 4.16 0 0 0 4.166-4.153 4.16 4.16 0 0 0-4.166-4.152 4.16 4.16 0 0 0-4.166 4.152 4.16 4.16 0 0 0 4.166 4.153M29.539 86.132a4.16 4.16 0 0 0 4.166-4.153 4.16 4.16 0 0 0-4.166-4.153 4.16 4.16 0 0 0-4.166 4.153 4.16 4.16 0 0 0 4.166 4.153M15.232 41.794a4.16 4.16 0 0 0 4.166-4.153 4.16 4.16 0 0 0-4.166-4.153 4.16 4.16 0 0 0-4.166 4.153 4.16 4.16 0 0 0 4.166 4.153M13.531 25.701a4.16 4.16 0 0 0 4.166-4.152 4.16 4.16 0 0 0-4.166-4.153 4.16 4.16 0 0 0-4.166 4.153 4.16 4.16 0 0 0 4.166 4.152M28.713 36.362a4.16 4.16 0 0 0 4.166-4.153 4.16 4.16 0 0 0-4.166-4.153 4.16 4.16 0 0 0-4.166 4.153 4.16 4.16 0 0 0 4.166 4.152M29.25 22.422a4.16 4.16 0 0 0 4.166-4.152 4.16 4.16 0 0 0-4.166-4.153 4.16 4.16 0 0 0-4.166 4.153 4.16 4.16 0 0 0 4.166 4.152M43.361 25.701a4.16 4.16 0 0 0 4.166-4.152 4.16 4.16 0 0 0-4.166-4.153 4.16 4.16 0 0 0-4.166 4.153 4.16 4.16 0 0 0 4.166 4.152M61.523 25.701a4.16 4.16 0 0 0 4.166-4.152 4.16 4.16 0 0 0-4.166-4.153 4.16 4.16 0 0 0-4.166 4.153 4.16 4.16 0 0 0 4.166 4.152M75.277 22.245a4.16 4.16 0 0 0 4.166-4.153 4.16 4.16 0 0 0-4.166-4.153 4.16 4.16 0 0 0-4.166 4.153 4.16 4.16 0 0 0 4.166 4.153M76.223 36.646a4.16 4.16 0 0 0 4.165-4.153 4.16 4.16 0 0 0-4.166-4.153 4.16 4.16 0 0 0-4.165 4.153 4.16 4.16 0 0 0 4.165 4.153M89.707 41.794a4.16 4.16 0 0 0 4.166-4.153 4.16 4.16 0 0 0-4.166-4.153 4.16 4.16 0 0 0-4.166 4.153 4.16 4.16 0 0 0 4.166 4.153M89.707 66.307a4.16 4.16 0 0 0 4.166-4.153 4.16 4.16 0 0 0-4.166-4.152 4.16 4.16 0 0 0-4.166 4.152 4.16 4.16 0 0 0 4.166 4.153M76.223 71.669a4.16 4.16 0 0 0 4.165-4.153 4.16 4.16 0 0 0-4.166-4.153 4.16 4.16 0 0 0-4.165 4.153 4.16 4.16 0 0 0 4.165 4.152M91.56 82.412a4.16 4.16 0 0 0 4.166-4.153 4.16 4.16 0 0 0-4.166-4.153 4.16 4.16 0 0 0-4.166 4.153 4.16 4.16 0 0 0 4.166 4.153M61.523 82.412a4.16 4.16 0 0 0 4.166-4.153 4.16 4.16 0 0 0-4.166-4.153 4.16 4.16 0 0 0-4.166 4.153 4.16 4.16 0 0 0 4.166 4.153M43.361 82.412a4.16 4.16 0 0 0 4.166-4.153 4.16 4.16 0 0 0-4.166-4.153 4.16 4.16 0 0 0-4.166 4.153 4.16 4.16 0 0 0 4.166 4.153M13.41 82.412a4.16 4.16 0 0 0 4.166-4.153 4.16 4.16 0 0 0-4.166-4.153 4.16 4.16 0 0 0-4.166 4.153 4.16 4.16 0 0 0 4.166 4.153M75.277 86.132a4.16 4.16 0 0 0 4.166-4.153 4.16 4.16 0 0 0-4.166-4.153 4.16 4.16 0 0 0-4.166 4.153 4.16 4.16 0 0 0 4.166 4.153M52.389 93.454a4.16 4.16 0 0 0 4.165-4.153 4.16 4.16 0 0 0-4.165-4.152 4.16 4.16 0 0 0-4.166 4.152 4.16 4.16 0 0 0 4.166 4.153M67.353 100.003a4.16 4.16 0 0 0 4.166-4.153 4.16 4.16 0 0 0-4.166-4.152 4.16 4.16 0 0 0-4.165 4.152 4.16 4.16 0 0 0 4.165 4.153M37.615 100.003a4.16 4.16 0 0 0 4.166-4.153 4.16 4.16 0 0 0-4.166-4.152 4.16 4.16 0 0 0-4.166 4.152 4.16 4.16 0 0 0 4.166 4.153M82.15 54.057a4.16 4.16 0 0 0 4.166-4.153 4.16 4.16 0 0 0-4.166-4.153 4.16 4.16 0 0 0-4.166 4.153 4.16 4.16 0 0 0 4.166 4.152M100.789 54.057a4.16 4.16 0 0 0 4.166-4.153 4.16 4.16 0 0 0-4.166-4.153 4.16 4.16 0 0 0-4.166 4.153 4.16 4.16 0 0 0 4.166 4.152M91.559 25.701a4.16 4.16 0 0 0 4.165-4.152 4.16 4.16 0 0 0-4.166-4.153 4.16 4.16 0 0 0-4.165 4.153 4.16 4.16 0 0 0 4.165 4.152M52.389 14.665a4.16 4.16 0 0 0 4.165-4.153A4.16 4.16 0 0 0 52.39 6.36a4.16 4.16 0 0 0-4.166 4.153 4.16 4.16 0 0 0 4.166 4.153M37.5 8.305a4.16 4.16 0 0 0 4.166-4.152A4.16 4.16 0 0 0 37.5 0a4.16 4.16 0 0 0-4.166 4.153A4.16 4.16 0 0 0 37.5 8.305M67.394 8.305a4.16 4.16 0 0 0 4.166-4.152A4.16 4.16 0 0 0 67.394 0a4.16 4.16 0 0 0-4.166 4.153 4.16 4.16 0 0 0 4.166 4.152" fill="#041a55"/><path d="M146.113 50.002c0-11.863 9.057-20.87 20.91-20.87a20.92 20.92 0 0 1 18.117 10.097l-6.93 4.345a12.12 12.12 0 0 0-11.134-6.76c-7.487 0-12.97 5.839-12.97 13.19-.006 7.177 5.432 13.11 12.866 13.11a12.31 12.31 0 0 0 11.574-7.508l7.209 3.841c-3.513 7.088-10.798 11.534-18.729 11.43-12.305 0-20.91-9.347-20.91-20.87M200.367 29.694v40.633h26.781v-7.622h-18.841V29.694zM242.656 29.694v40.633h27.459V62.87h-19.573V53.63h15.936v-7.405h-15.936v-9.129h19.573v-7.402zM300.037 29.694 284.609 70.33h8.1l2.663-7.396h17.05l2.662 7.396h8.106l-15.428-40.636h-7.728zm3.913 9.952 5.869 16.167h-11.794l5.922-16.167zM345.86 36.93v13.415h8.052c5.197 0 7.607-3.231 7.607-6.848 0-3.981-2.576-6.567-7.607-6.567zm-7.88-7.239h16.55c9.393 0 14.982 6.01 14.982 13.753.11 5.038-2.665 9.7-7.155 12.02l8.052 14.86h-8.84l-6.543-12.805h-9.169v12.805h-7.88v-40.63zM376.434 29.676q.742 0 1.394.285.652.286 1.135.776A3.65 3.65 0 0 1 380 33.305q.002.75-.282 1.404-.281.653-.764 1.152c-.324.332-.698.59-1.132.782q-.646.285-1.391.284c-.496 0-.977-.094-1.417-.284q-.657-.285-1.144-.782a3.7 3.7 0 0 1-.764-1.152 3.6 3.6 0 0 1-.276-1.404 3.65 3.65 0 0 1 1.04-2.568 3.7 3.7 0 0 1 1.144-.776q.655-.285 1.417-.285zm0 6.437q.564 0 1.055-.22.494-.217.859-.604.367-.383.576-.894.21-.509.211-1.09c0-.388-.071-.761-.211-1.105a2.8 2.8 0 0 0-.576-.895 2.7 2.7 0 0 0-.859-.598 2.6 2.6 0 0 0-1.055-.22c-.374 0-.737.075-1.069.22a2.8 2.8 0 0 0-.868.598q-.37.378-.582.895-.21.514-.211 1.105c0 .394.071.75.211 1.09q.21.51.582.894.37.382.868.605.498.22 1.069.219m.205-4.517q.63-.002.966.29.339.29.339.794.001.421-.271.687-.27.266-.769.332l1.061 1.282h-.835l-.987-1.273h-.309v1.273h-.704v-3.385zm-.808.637v.897h.788a.8.8 0 0 0 .445-.113q.164-.11.164-.337a.39.39 0 0 0-.164-.338q-.162-.114-.445-.112h-.788z" fill="#000"/></g><defs><clipPath id="a"><path fill="#fff" d="M0 0h380v100H0z"/></clipPath></defs></svg>