<?xml version="1.0" encoding="UTF-8"?><svg id="Layer_1" xmlns="http://www.w3.org/2000/svg" viewBox="0 0 539.01 135.32"><defs><style>.cls-1{fill:#fad980;}.cls-2{fill:#0071bc;}.cls-3{fill:#102e51;}.cls-4{fill:#112e51;font-family:Helvetica-Bold, Helvetica;font-size:58px;font-weight:700;letter-spacing:0em;}</style></defs><path class="cls-1" d="m66.93,117.88c-12.32-7.82-61.81-41.17-61.49-71.98-.05-17.52,14.11-31.76,31.63-31.81,10.15-.03,19.7,4.8,25.69,13l4.46,5.9,4.31-6c5.89-8.2,15.4-13.01,25.49-12.89,17.53.02,31.73,14.22,31.75,31.75,0,27.72-42.26,59.83-61.84,72.04Z"/><path class="cls-3" d="m134.21,45.85c.05-20.49-16.51-37.14-36.99-37.19-.07,0-.13,0-.2,0-11.84-.09-22.98,5.56-29.91,15.16C54.96,7.28,31.7,3.72,15.16,15.87,5.62,22.88,0,34.01,0,45.85c-.4,38.6,66.9,78.42,66.9,78.42,11.38-7,22.19-14.89,32.33-23.59,9.11,4.03,19.76-.1,23.79-9.21,2.2-4.98,2.03-10.68-.45-15.53,6.92-9.61,11.64-19.89,11.64-30.09Zm-93.95,45.31c-19.07-16.86-29.5-32.91-29.37-45.31-.02-14.51,11.73-26.29,26.25-26.31,8.42,0,16.34,4.02,21.29,10.84l8.91,11.79,8.61-12.01c4.87-6.76,12.74-10.73,21.07-10.62,14.52.02,26.29,11.78,26.31,26.31-.6,8.07-3.57,15.79-8.53,22.19-2.57-1.38-5.45-2.12-8.37-2.14-9.97-.05-18.09,7.99-18.14,17.95-.02,3.38.91,6.69,2.68,9.56-7.65,6.47-15.69,12.47-24.07,17.98-9.34-6.12-18.24-12.89-26.65-20.24Z"/><text id="Data_at_the_Point_of_Care" class="cls-4" transform="translate(179.06 50.58)"><tspan x="0" y="0">Data at the</tspan><tspan x="0" y="66">Point of Care</tspan></text><rect class="cls-2" x="153.92" width="2.4" height="135.32"/></svg>