<svg width="274" height="100" fill="none" xmlns="http://www.w3.org/2000/svg"><path d="M14.702.733H9.977c-5.898 0-8.891 1.748-8.891 5.19v85.195c0 3.445 2.993 5.19 8.891 5.19h4.725c5.9 0 8.891-1.747 8.891-5.19V5.924c.003-3.443-2.99-5.191-8.89-5.191M98.043 85.874c0-10.164 6.714-18.766 15.986-21.726q1.588-7.107 1.603-15.676C115.632 17.677 99.94.716 71.446.716H41.07c-4.243 0-6.22 1.955-6.22 6.155v83.202c0 4.2 1.977 6.155 6.218 6.155h30.375c10.864 0 19.86-2.472 26.84-7.228a23 23 0 0 1-.24-3.126m-26.602-8.799H57.455V19.869h13.986c17.5 0 21.174 15.555 21.174 28.603S88.94 77.075 71.441 77.075M121.118 75.44c5.823 0 10.544 4.672 10.544 10.435s-4.721 10.434-10.544 10.434-10.544-4.671-10.544-10.434 4.721-10.434 10.544-10.434M271.055 71.232a2.7 2.7 0 0 0-.977-.216c-1.44-.048-2.422.512-3.289 1.9-.514.832-1.018 1.677-1.521 2.523-1.912 3.224-3.887 6.553-6.759 8.942-3.898 3.24-9.543 4.755-14.385 3.876-2.878-.522-4.935-2.584-6.154-4.22-2.235-3.009-3.324-7.058-3.148-11.725 7.127-.595 28.602-3.737 30.312-19.848.331-3.124-.569-5.954-2.6-8.187-2.575-2.83-6.688-4.392-11.576-4.392-14.324 0-28.463 14.828-30.255 31.732-.49 4.637.094 8.92 1.738 12.736a14.2 14.2 0 0 1-3.529 2.468c-1.201.565-2.24.681-3.002.335-.943-.433-1.326-1.525-1.477-2.36-.564-3.095.164-6.653 1.027-10.328.507-2.156 1.144-4.4 1.703-6.383 1.733-6.114 3.525-12.435 2.926-18.822-.543-5.848-4.691-9.48-10.822-9.48-8.596 0-14.257 6.07-17.921 11.275-.078-3.878-1.011-6.695-2.842-8.577-1.742-1.791-4.301-2.7-7.602-2.7-8.432 0-14.022 5.831-17.677 10.936q.072-.707.151-1.427c.231-2.188.333-5.323-1.431-7.26-1.05-1.153-2.63-1.74-4.695-1.74-1.42-.042-2.84.067-4.235.331-.02.003-1.915.37-2.636 1.026-1.263 1.146-.861 2.727-.631 3.63.03.114.058.219.071.308.144 1 .187 2.012.133 3.021-.265 6.14-1.416 12.276-2.509 17.47-.591 2.798-1.255 5.644-1.913 8.453-1.461 6.235-2.967 12.677-3.741 19.158a2.3 2.3 0 0 0 2.319 2.612l.454.004c4.634.062 9.188-.127 10.259-2.744 1.184-2.885 1.84-6.394 2.419-9.498l.256-1.376c1.374-7.137 2.575-12.25 4.995-18.825 1.246-3.388 3.524-6.44 5.366-8.723 2.23-2.764 4.636-5.469 7.35-5.537 1.124-.057 1.856.273 2.409 1 2.636 3.482-.646 14.719-2.048 19.518a79 79 0 0 0-.721 2.556l-.966 3.708c-1.422 5.405-2.892 10.993-3.645 16.646a58 58 0 0 0-.206 1.748l-.064.789.594.45c1.196.92 9.738-.366 9.806-.386 3.15-1.053 3.835-3.986 4.061-4.95.587-2.493 1.105-5.04 1.605-7.502l.036-.182c.941-4.637 1.913-9.434 3.367-14.062 2.84-9.006 6.625-15.15 11.254-18.262 1.979-1.336 4.013-1.484 4.933-.356 1.6 1.947.587 7.215.153 9.464-.598 3.122-1.365 6.296-2.105 9.368l-.039.157a337 337 0 0 0-1.383 5.875c-1.354 6.08-2.465 13.618.993 17.968 1.76 2.217 4.483 3.34 8.094 3.34 3.831 0 7.433-1.264 11.338-3.978 1.076-.754 2.162-1.632 3.431-2.675 4.397 4.944 9.389 7.064 16.595 7.064 16.294 0 23.955-10.715 28.301-18.775a27 27 0 0 0 1.525-3.2c.539-1.483-.107-3.105-1.472-3.689M250.321 56.47c-2.326 7.463-8.87 8.785-14.533 8.974a43.5 43.5 0 0 1 3.291-9.218c2.755-5.555 6.216-9.005 9.028-9.007 4.294 0 2.946 6.853 2.214 9.251" fill="#172f55"/></svg>