<svg width="93" height="34" viewBox="0 0 93 34" fill="none" xmlns="http://www.w3.org/2000/svg">
<path d="M4.99022 0.249146H3.38642C1.38439 0.249146 0.368652 0.843402 0.368652 2.0141V30.98C0.368652 32.1515 1.38439 32.745 3.38642 32.745H4.99022C6.99302 32.745 8.00799 32.1507 8.00799 30.98V2.0141C8.00876 0.843402 6.99302 0.249146 4.99022 0.249146Z" fill="white"/>
<path d="M33.2776 29.197C33.2776 25.7414 35.5563 22.8166 38.7034 21.8102C39.0629 20.1994 39.2442 18.4229 39.2473 16.4805C39.2473 6.0101 33.9215 0.243408 24.2499 0.243408H13.9399C12.4996 0.243408 11.8286 0.90817 11.8286 2.33609V30.6249C11.8286 32.0528 12.4996 32.7176 13.9391 32.7176H24.2491C27.9363 32.7176 30.9897 31.8769 33.359 30.26C33.3071 29.9082 33.28 29.5526 33.2769 29.197M24.2483 26.2055H19.5013V6.75544H24.2483C30.1878 6.75544 31.4352 12.0441 31.4352 16.4805C31.4352 20.9169 30.1878 26.2055 24.2483 26.2055Z" fill="white"/>
<path d="M41.1095 25.6498C43.0859 25.6498 44.6882 27.2381 44.6882 29.1975C44.6882 31.1569 43.0859 32.7452 41.1095 32.7452C39.133 32.7452 37.5308 31.1569 37.5308 29.1975C37.5308 27.2381 39.133 25.6498 41.1095 25.6498Z" fill="white"/>
<path d="M92.0004 24.2189C91.8958 24.174 91.7835 24.1492 91.6688 24.1453C91.1799 24.129 90.8468 24.3196 90.5523 24.7915C90.378 25.0743 90.2068 25.3617 90.0363 25.6492C89.3871 26.7455 88.7169 27.8774 87.7422 28.6894C86.4189 29.7911 84.5029 30.3064 82.8596 30.0073C81.8826 29.8299 81.1845 29.1287 80.7707 28.5724C80.0122 27.5497 79.6427 26.1729 79.7023 24.5862C82.1212 24.3839 89.4103 23.3155 89.9906 17.8378C90.103 16.7756 89.7977 15.8133 89.1082 15.054C88.2342 14.0918 86.8381 13.561 85.1793 13.561C80.3175 13.561 75.5185 18.6025 74.9103 24.3498C74.7437 25.9265 74.9421 27.3823 75.4999 28.6801C75.1458 29.0194 74.7414 29.3022 74.3021 29.5192C73.8946 29.7113 73.542 29.7508 73.2833 29.6331C72.9633 29.4859 72.8331 29.1147 72.782 28.8304C72.5906 27.7782 72.8378 26.5688 73.1306 25.3191C73.3026 24.5862 73.5188 23.823 73.7086 23.1489C74.2967 21.0702 74.9049 18.921 74.7019 16.7493C74.5175 14.7612 73.1097 13.5262 71.0287 13.5262C68.1108 13.5262 66.1894 15.5902 64.9459 17.3598C64.9195 16.0411 64.6026 15.0835 63.9813 14.4435C63.3901 13.8345 62.5216 13.5254 61.4012 13.5254C58.5392 13.5254 56.6418 15.5081 55.4013 17.2436C55.4176 17.084 55.4347 16.9213 55.4525 16.7585C55.5307 16.0148 55.5656 14.9487 54.9667 14.2901C54.6103 13.8981 54.0741 13.6989 53.373 13.6989C52.8911 13.6842 52.4091 13.7214 51.9358 13.8113C51.9288 13.8121 51.2857 13.9368 51.0409 14.1599C50.6124 14.5497 50.7488 15.0873 50.827 15.3942C50.8371 15.4329 50.8464 15.4685 50.8511 15.4988C50.8999 15.8389 50.9146 16.1829 50.896 16.5261C50.8061 18.6134 50.4156 20.6999 50.0445 22.4656C49.8438 23.417 49.6184 24.3847 49.3952 25.34C48.8994 27.4598 48.388 29.6501 48.1254 31.8536C48.0673 32.282 48.3663 32.6764 48.7948 32.7345C48.8335 32.7399 48.873 32.7423 48.9126 32.7415L49.0667 32.743C50.6395 32.764 52.1852 32.6997 52.5486 31.8102C52.9507 30.8293 53.1731 29.6362 53.3699 28.5809L53.4566 28.113C53.9231 25.6863 54.3306 23.9477 55.1519 21.7125C55.5749 20.5604 56.3481 19.523 56.9734 18.7466C57.7303 17.8068 58.5469 16.8872 59.4682 16.8639C59.8494 16.8446 60.0981 16.9569 60.2856 17.204C61.1804 18.3879 60.0663 22.2084 59.5906 23.84C59.4875 24.1926 59.4008 24.4909 59.3458 24.7093L59.018 25.9699C58.5353 27.8077 58.0364 29.7075 57.7807 31.6297C57.7551 31.8265 57.7311 32.024 57.711 32.2239L57.6893 32.492L57.8907 32.6454C58.2967 32.9577 61.1959 32.5207 61.2192 32.5137C62.2884 32.1558 62.5208 31.1586 62.5975 30.8309C62.7966 29.9833 62.9725 29.1171 63.1422 28.2803L63.1546 28.2183C63.4738 26.6416 63.8038 25.0107 64.2974 23.4372C65.2612 20.3752 66.5458 18.2864 68.117 17.2281C68.7888 16.774 69.4791 16.7237 69.7913 17.1072C70.3345 17.7689 69.9905 19.5602 69.8433 20.3249C69.6403 21.3863 69.3799 22.4656 69.1289 23.51L69.1157 23.5634C68.9546 24.229 68.795 24.8937 68.6462 25.5608C68.1868 27.6279 67.8094 30.1909 68.9832 31.67C69.5806 32.4238 70.5049 32.8058 71.7306 32.8058C73.0307 32.8058 74.2533 32.3758 75.5789 31.453C75.9439 31.1966 76.3127 30.8983 76.7434 30.5434C78.2357 32.2247 79.9301 32.9453 82.3761 32.9453C87.9065 32.9453 90.5066 29.3022 91.9818 26.5618C92.1778 26.2109 92.3514 25.8475 92.4994 25.4741C92.6822 24.9697 92.463 24.418 91.9996 24.2197M84.9631 19.1999C84.1736 21.7373 81.9523 22.1867 80.0301 22.251C80.2834 21.1678 80.6584 20.1164 81.1473 19.117C82.0825 17.2281 83.257 16.055 84.2116 16.0543C85.6689 16.0543 85.2113 18.3844 84.9631 19.1999Z" fill="white"/>
</svg>
