<svg width="740" height="100" fill="none" xmlns="http://www.w3.org/2000/svg"><g clip-path="url(#a)"><path d="M18.848 17.456h43.574v55.89H18.848z" fill="#fff"/><path d="M135.408 13.377h-15.605V82.57h45.271v-13.63h-29.666zm77.927-.481c-21.154 0-37.165 14.923-37.165 35.09s16.011 35.292 37.165 35.292S250.5 68.077 250.5 47.986s-16.011-35.09-37.165-35.09m.203 56.727a21.51 21.51 0 0 1-21.357-21.637 21.28 21.28 0 0 1 21.357-21.46 21 21 0 0 1 20.951 21.46 21.2 21.2 0 0 1-5.96 15.192 21.18 21.18 0 0 1-14.991 6.445m89.58-43.198a28.96 28.96 0 0 1 18.975 7.6l8.791-11.172a43.6 43.6 0 0 0-27.867-10.135c-21.559 0-37.748 15.202-37.748 35.09s15.935 35.445 36.937 35.445a51.2 51.2 0 0 0 28.07-8.994V44.515h-25.613v12.212h12.009v9.146a31.5 31.5 0 0 1-13.529 3.75 21.58 21.58 0 0 1-21.275-12.935 21.588 21.588 0 0 1 21.275-30.136zm49.68-13.048h15.631V82.57h-15.631zm87.477 44.49-33.618-44.49h-14.212V82.57h14.922V38.181l33.491 44.388h14.237V13.377h-14.82zm44.258 7.22a8.59 8.59 0 0 0-8.791 9.02 8.794 8.794 0 0 0 8.791 8.791 8.79 8.79 0 0 0 8.791-8.791 8.51 8.51 0 0 0-8.791-9.02m58.648-38.662a28.96 28.96 0 0 1 18.975 7.6l8.791-11.172a43.6 43.6 0 0 0-27.867-10.135c-21.559 0-37.748 15.202-37.748 35.09s15.91 35.293 36.861 35.293a51.2 51.2 0 0 0 28.07-8.994V44.515h-25.587v12.212h12.084v9.146a31.5 31.5 0 0 1-13.528 3.75 21.585 21.585 0 0 1-8.703-41.877 21.6 21.6 0 0 1 8.703-1.194zm81.651-13.53c-21.154 0-37.089 14.974-37.089 35.09s16.011 35.293 37.165 35.293 37.164-15.201 37.164-35.292-16.061-35.09-37.24-35.09m.202 56.728a21.51 21.51 0 0 1-21.356-21.637 21.29 21.29 0 0 1 13.148-19.845 21.3 21.3 0 0 1 8.208-1.614 21 21 0 0 1 19.513 13.287 21 21 0 0 1 1.464 8.172 21.184 21.184 0 0 1-20.977 21.637m98.853-56.246L704.912 65.57l-18.874-52.192h-16.796l27.183 69.192h16.112l27.462-69.192z" fill="#112e51"/><path d="m28.83 64.2 3.674-20.977a11.122 11.122 0 0 1 6.865-19.914V0H10.995A10.994 10.994 0 0 0 0 10.996V64.91A6.64 6.64 0 0 0 .66 67.85C3.04 72.663 12.439 88.118 39.344 100V65.113A61.6 61.6 0 0 1 28.83 64.2" fill="#e21d3e"/><path d="M67.692 0H39.344v23.284A11.121 11.121 0 0 1 46.31 43.07l3.674 21.079a61.5 61.5 0 0 1-10.64.912V100c26.879-11.832 36.303-27.337 38.684-32.126a6.6 6.6 0 0 0 .66-2.939v-53.94A10.997 10.997 0 0 0 67.691 0" fill="#b51e23"/></g><defs><clipPath id="a"><path fill="#fff" d="M0 0h740v100H0z"/></clipPath></defs></svg>