<svg xmlns="http://www.w3.org/2000/svg" viewBox="0 0 38 33"><defs><style>.cls-1{fill:#fad980;}.cls-2{fill:#102e51;}</style></defs><title>Top nav heart</title><path class="cls-1" d="M19.0335,30.5278c-3.3955-2.1552-17.041-11.35-16.9521-19.8442A8.7439,8.7439,0,0,1,17.8841,5.4985L19.1126,7.124,20.3,5.4688A8.53,8.53,0,0,1,27.3284,1.915a8.7632,8.7632,0,0,1,8.753,8.753C36.0814,18.3091,24.431,27.1631,19.0335,30.5278Z"/><path class="cls-2" d="M37.5812,10.6677A10.226,10.226,0,0,0,27.3282.4149,10.0819,10.0819,0,0,0,19.0814,4.594a10.2441,10.2441,0,0,0-18.5,6.0737C.47,21.3107,19.0257,32.288,19.0257,32.288a69.69,69.69,0,0,0,8.9119-6.5041,4.9733,4.9733,0,0,0,6.4348-6.8195C36.279,16.314,37.5812,13.48,37.5812,10.6677ZM11.6791,23.16c-5.2574-4.6472-8.1331-9.0725-8.0975-12.492A7.2445,7.2445,0,0,1,16.6879,6.4025L19.144,9.6533l2.375-3.31a7.0464,7.0464,0,0,1,5.8092-2.9279,7.2611,7.2611,0,0,1,7.253,7.2528,11.3731,11.3731,0,0,1-2.3526,6.1185,4.9437,4.9437,0,0,0-2.3078-.5893,4.975,4.975,0,0,0-4.26,7.586,68.9463,68.9463,0,0,1-6.6349,4.9557A66.9177,66.9177,0,0,1,11.6791,23.16Z"/></svg>