<?xml version="1.0" encoding="utf-8"?>
<!-- Generator: Adobe Illustrator 24.0.3, SVG Export Plug-In . SVG Version: 6.00 Build 0)  -->
<svg version="1.1" id="Layer_1" xmlns="http://www.w3.org/2000/svg" xmlns:xlink="http://www.w3.org/1999/xlink" x="0px" y="0px"
	 viewBox="0 0 255.97 242.73" style="enable-background:new 0 0 255.97 242.73;" xml:space="preserve">
<style type="text/css">
	.st0{fill:none;stroke:#F4F2ED;stroke-width:8;stroke-miterlimit:10;}
	.st1{fill:#FFFFFF;}
	.st2{fill:#F4F2ED;}
	.st3{fill:none;stroke:#070707;stroke-width:4;stroke-miterlimit:10;}
	.st4{fill:none;stroke:#F1DB95;stroke-width:3;stroke-miterlimit:10;}
	.st5{opacity:0.5;fill:none;stroke:#4F514F;stroke-width:3;stroke-miterlimit:10;}
	.st6{fill:#72B772;}
	.st7{opacity:0.7;}
	.st8{fill:#4B4D4F;}
</style>
<g>
	<path class="st0" d="M121.6,83.67H78.05V65.22c0-12.02,9.75-21.77,21.77-21.77h0c12.02,0,21.77,9.75,21.77,21.77V83.67z"/>
	<path class="st1" d="M101.2,128.21H66.17c-8.8,0-15.94-7.14-15.94-15.94V94.71c0-8.8,7.14-15.94,15.94-15.94h50.97v33.5
		C117.14,121.08,110,128.21,101.2,128.21z"/>
	<path class="st2" d="M84.25,127.38H30.9c-3.75,0-6.78-3.04-6.78-6.78V84.72c0-3.75,3.04-6.78,6.78-6.78h53.35
		c3.75,0,6.78,3.04,6.78,6.78v35.88C91.03,124.34,88,127.38,84.25,127.38z"/>
	<path class="st3" d="M35.68,77.94"/>
	<g>
		<path class="st1" d="M62.44,100.57C62.44,100.57,62.44,100.57,62.44,100.57c-2.8,2.13-5.74,2.25-8,1.18
			c-3.69-1.76-5.57-6.7-2.09-11.27C59.72,84.86,68.05,93.2,62.44,100.57z"/>
		<polygon class="st1" points="57.51,89.25 52.1,116.56 62.43,116.56 		"/>
	</g>
</g>
<line class="st4" x1="17.5" y1="196.7" x2="239.5" y2="196.7"/>
<rect x="173.9" y="158.98" class="st5" width="42.88" height="29.18"/>
<polygon class="st6" points="179.33,153.63 186.33,138.41 194.56,153.63 238.16,80.56 194.97,182.29 "/>
<g class="st7">
	<g>
		<path class="st8" d="M51.42,186c5.6-4.37,11.5-8.52,16.69-13.38c4.1-3.84,7.99-8.74,8.54-14.54c0.41-4.26-2.21-10.37-7.5-8.75
			c-6.83,2.1-5.46,10.78-4.76,16.1c1.15,8.68,2.57,17.32,4.24,25.91c0.08,0.42,0.73,0.31,0.74-0.1c0.03-4.25,1.74-8.27,4.78-11.23
			c-0.21-0.06-0.42-0.11-0.63-0.17c0.68,3.25,1.82,7.32,5.64,7.97c3.57,0.61,4.99-3.12,5.93-5.84c2.72-7.85,2.45-16.6-0.65-24.29
			c-0.13-0.32-0.62-0.39-0.72,0c-2.1,8.13-2.63,16.64-1.44,24.96c0.36,2.5,1.37,5.9,4.51,5.78c3.24-0.12,5.26-3.77,6.4-6.33
			c1.74-3.93,2.44-8.24,2.08-12.51c-0.25,0.03-0.49,0.07-0.74,0.1c2.63,10.97,2.66,22.43,0.08,33.41c0.18-0.07,0.37-0.15,0.55-0.22
			c-5.98-3.59-8.57-11.19-5.73-17.62c1.35-3.06,3.67-5.37,6.58-6.98c2.31-1.28,4.79-2.24,7.03-3.65c2.17-1.37,3.97-3.19,4.41-5.81
			c0.05-0.29-0.16-0.52-0.46-0.46c-2.17,0.41-3.53,2.38-3.77,4.5c-0.27,2.49,1.12,4.65,3.4,5.63c2.47,1.06,5.42,0.65,7.62-0.85
			c2.54-1.73,4.07-4.5,4.99-7.37c-0.24-0.07-0.48-0.13-0.72-0.2c-0.75,2.47-0.99,5.05-0.64,7.61c0.28,2.07,0.85,4.54,2.63,5.87
			c3.51,2.62,8.16-0.94,10.65-3.37c0.35-0.34-0.18-0.87-0.53-0.53c-2.24,2.18-6.86,5.89-9.95,3.09c-1.56-1.42-1.98-3.98-2.16-5.98
			c-0.19-2.19,0.08-4.38,0.72-6.48c0.14-0.46-0.58-0.66-0.72-0.2c-1.45,4.53-5.19,9.33-10.55,8.07c-2.21-0.52-3.99-2.22-4.02-4.57
			c-0.03-2.04,1.15-4.09,3.25-4.49c-0.15-0.15-0.31-0.31-0.46-0.46c-0.99,5.86-8.63,7.18-12.81,10.05
			c-5.3,3.64-7.74,10.63-5.67,16.75c1.15,3.39,3.48,6.26,6.54,8.11c0.2,0.12,0.5,0.01,0.55-0.22c2.61-11.11,2.58-22.71-0.08-33.81
			c-0.1-0.4-0.77-0.33-0.74,0.1c0.37,4.43-0.39,8.91-2.34,12.93c-0.88,1.82-2.03,3.75-3.89,4.72c-2.29,1.2-4.15-0.36-4.83-2.54
			c-0.61-1.96-0.73-4.12-0.88-6.16c-0.17-2.21-0.22-4.43-0.15-6.65c0.14-4.73,0.83-9.41,2.01-13.99c-0.24,0-0.48,0-0.72,0
			c2.62,6.51,3.2,13.74,1.6,20.58c-0.38,1.61-0.87,3.2-1.49,4.74c-0.63,1.58-1.47,3.54-3.34,3.89c-4.18,0.78-5.62-4.41-6.26-7.44
			c-0.06-0.28-0.44-0.35-0.63-0.17c-3.18,3.1-4.98,7.32-5,11.76c0.25-0.03,0.49-0.07,0.74-0.1c-1.32-6.78-2.48-13.59-3.48-20.43
			c-0.5-3.46-1.09-6.94-1.35-10.42c-0.24-3.16,0.05-6.64,2.55-8.9c2.24-2.03,5.54-2.08,7.38,0.48c1.44,2.01,1.73,4.73,1.3,7.11
			c-0.98,5.45-4.64,9.86-8.62,13.51c-5.1,4.68-10.81,8.73-16.26,12.99C50.51,185.76,51.05,186.29,51.42,186L51.42,186z"/>
	</g>
</g>
</svg>
