<?xml version="1.0" standalone="no"?>
<!DOCTYPE svg PUBLIC "-//W3C//DTD SVG 20010904//EN"
 "http://www.w3.org/TR/2001/REC-SVG-20010904/DTD/svg10.dtd">
<svg version="1.0" xmlns="http://www.w3.org/2000/svg"
 width="608.000000pt" height="608.000000pt" viewBox="0 0 608.000000 608.000000"
 preserveAspectRatio="xMidYMid meet">
<metadata>
Created by potrace 1.11, written by Peter Selinger 2001-2013
</metadata>
<g transform="translate(0.000000,608.000000) scale(0.100000,-0.100000)"
fill="#000000" stroke="none">
<path d="M1687 5614 c-1 -1 -40 -4 -87 -8 -118 -8 -176 -18 -302 -51 -10 -3
-26 -7 -35 -9 -88 -22 -314 -125 -403 -183 -19 -13 -43 -29 -54 -36 -125 -82
-263 -214 -388 -372 -29 -36 -93 -138 -137 -220 -66 -119 -136 -319 -157 -445
-3 -14 -7 -38 -11 -55 -10 -49 -13 -83 -16 -234 -4 -169 7 -269 45 -431 22
-93 92 -289 139 -389 27 -57 49 -105 49 -106 0 -10 124 -221 131 -223 5 -2 9
-8 9 -13 0 -11 129 -209 150 -229 3 -3 25 -32 49 -65 25 -33 47 -62 50 -65 4
-3 19 -23 36 -45 16 -21 36 -46 45 -55 8 -9 31 -36 51 -60 40 -49 52 -63 173
-193 102 -112 310 -316 427 -422 101 -92 150 -135 204 -180 32 -27 75 -64 94
-81 116 -101 581 -458 672 -516 14 -9 33 -23 41 -30 7 -7 21 -17 30 -23 9 -5
108 -71 220 -146 112 -74 232 -153 267 -176 l65 -40 80 51 c113 71 299 193
311 203 6 5 17 12 25 16 8 4 42 26 75 49 155 111 311 223 322 233 36 30 43 35
52 35 5 0 11 4 13 8 2 4 32 30 68 57 83 63 307 243 385 309 100 85 86 80 157
58 180 -57 337 -59 513 -4 47 14 185 85 185 94 0 4 7 8 15 8 26 0 180 163 224
237 38 65 77 151 87 196 2 9 7 27 10 40 18 71 24 227 11 315 -8 52 -42 157
-63 195 -16 28 -15 29 71 158 47 72 89 138 92 147 4 10 9 19 12 22 9 7 47 76
84 150 17 36 36 68 40 71 5 3 8 9 8 13 -1 3 6 23 15 44 63 149 127 338 139
417 3 16 10 55 16 85 15 74 18 113 18 265 1 127 -1 158 -12 220 -3 17 -9 50
-12 75 -4 24 -8 47 -10 51 -2 3 -7 20 -10 39 -10 55 -65 209 -110 306 -36 78
-136 248 -155 264 -3 3 -17 21 -30 40 -28 39 -28 40 -130 145 -89 92 -203 182
-320 255 -47 29 -86 52 -87 51 -2 0 -31 13 -65 29 -34 17 -67 30 -75 30 -7 0
-13 4 -13 8 0 5 -6 9 -12 9 -7 0 -49 12 -92 27 -44 14 -91 28 -105 31 -54 10
-71 14 -79 18 -7 5 -72 14 -157 23 -60 7 -284 6 -335 0 -25 -4 -65 -9 -90 -12
-25 -3 -53 -7 -62 -10 -9 -3 -25 -6 -35 -8 -89 -18 -234 -68 -342 -118 -90
-43 -184 -97 -189 -110 -2 -4 -8 -8 -14 -8 -17 0 -151 -106 -228 -182 -67 -65
-105 -107 -168 -187 l-18 -24 -39 49 c-59 74 -212 224 -280 274 -33 25 -61 48
-63 53 -2 4 -8 7 -14 7 -5 0 -28 13 -51 29 -54 37 -217 123 -217 115 0 -4 -6
-1 -14 5 -31 26 -230 87 -351 107 -16 3 -41 7 -55 10 -56 9 -276 24 -283 18z"/>
</g>
</svg>
