<?xml version="1.0" encoding="UTF-8"?>
<svg width="26px" height="17px" viewBox="0 0 26 17" version="1.1" xmlns="http://www.w3.org/2000/svg" xmlns:xlink="http://www.w3.org/1999/xlink">
    <!-- Generator: Sketch 56.3 (81716) - https://sketch.com -->
    <title>Path</title>
    <desc>Created with Sketch.</desc>
    <g id="Page-1" stroke="none" stroke-width="1" fill="none" fill-rule="evenodd">
        <g id="arrow-down" transform="translate(13.000000, 8.500000) rotate(-180.000000) translate(-13.000000, -8.500000) " fill="#FFFFFF" fill-rule="nonzero">
            <path d="M14.5022482,15.7706835 L25.368705,4.89253597 C25.7895683,4.48920863 26,3.99235612 26,3.39028777 C26,2.78821942 25.7895683,2.29136691 25.368705,1.88803957 L24.1178058,0.61960432 C23.7086331,0.21043165 23.2059353,0 22.6155576,0 C22.0368705,0 21.5283273,0.20458633 21.0957734,0.61960432 L13,8.7270683 L4.89253597,0.61960432 C4.4833633,0.21043165 3.98066547,0 3.39028777,0 C2.81160072,0 2.30305755,0.20458633 1.8705036,0.61960432 L0.61960432,1.88803957 C0.21043166,2.29721223 0,2.79991007 0,3.39028777 C0,3.98066547 0.20458633,4.48336331 0.61960432,4.89253597 L11.4802158,15.7706835 C11.9127698,16.1798561 12.4213129,16.3902878 13,16.3902878 C13.5903777,16.3902878 14.0930755,16.1857014 14.5022482,15.7706835 Z" id="Path"></path>
        </g>
    </g>
</svg>