<svg xmlns="http://www.w3.org/2000/svg" viewBox="0 0 362.7967 352.3199"><defs><style>.cls-1{fill:#4aa564;}.cls-2{fill:#00a6d2;}.cls-3{fill:#205393;}.cls-4{fill:#d8be7c;}</style></defs><title>Bottom heart</title><path class="cls-1" d="M312.996,151.9943A89.7563,89.7563,0,0,0,228.3591,91.51a87.5512,87.5512,0,0,0-14.9666,1.2925A89.1331,89.1331,0,0,0,54.6977,95.4672c-15.8386,31.5559-12.4121,75.2415,10.1846,129.8474a457.3636,457.3636,0,0,0,35.746,68.59l7.9222,12.082,14.4038-1.126a440.84,440.84,0,0,0,44.2373-6.3208,6.8686,6.8686,0,0,0,2.9514,2.7632,6.9527,6.9527,0,0,0,3.0469.7095,6.8941,6.8941,0,0,0,6.8715-6.13c6.1548-1.36,12.5425-2.8989,19.0616-4.6646,57.1074-15.4692,93.9382-39.36,109.4695-71.0087A88.7289,88.7289,0,0,0,312.996,151.9943Zm-136.5124,144.71a3.6679,3.6679,0,1,1-1.6761-4.9058A3.6676,3.6676,0,0,1,176.4836,296.7048Zm129.1858-77.9307c-15.1,30.7715-51.2342,54.0869-107.3975,69.3-6.3647,1.7241-12.6016,3.23-18.6172,4.564a6.8888,6.8888,0,0,0-3.4126-3.7627,6.9592,6.9592,0,0,0-3.0469-.709h0a6.922,6.922,0,0,0-6.9174,7.2348A436.2943,436.2943,0,0,1,122.7,301.6144l-12.4829.9756-6.866-10.4707a453.6134,453.6134,0,0,1-35.46-68.05c-22.22-53.6963-25.68-96.4712-10.2817-127.1448a85.8855,85.8855,0,0,1,153.9949-.4734,84.395,84.395,0,0,1,16.7549-1.6855,86.023,86.023,0,0,1,77.31,124.0083Z"/><path class="cls-2" d="M340.1808,205.6183a6.869,6.869,0,0,0-3.2412-3.833A110.297,110.297,0,0,0,277.1008,81.7316a111.2917,111.2917,0,0,0-48.7417-11.3874q-1.9842,0-3.9646.073A110.32,110.32,0,0,0,35.7433,86.0492c-18.6775,37.285-15.4531,86.86,9.5823,147.3582a481.0884,481.0884,0,0,0,37.603,72.103l14.7881,22.5528,26.887-2.1011a484.9286,484.9286,0,0,0,80.0532-14.3159c63.2429-17.1309,104.6047-44.7578,122.936-82.1128a112.3089,112.3089,0,0,0,5.9639-14.7588c.0237.0005.0471.0044.0708.0044a6.9226,6.9226,0,0,0,6.5532-9.1607Zm-15.511,22.48c-17.9006,36.4776-58.5654,63.53-120.8642,80.4053A481.2648,481.2648,0,0,1,124.35,322.7155l-24.9663,1.9517L85.6518,303.7253a477.4709,477.4709,0,0,1-37.3176-71.563C23.6767,172.5759,20.42,123.9108,38.6545,87.5075A107.1157,107.1157,0,0,1,222.7536,73.7509q2.7982-.15,5.6052-.1506a108.02,108.02,0,0,1,47.3076,11.0544,107.0338,107.0338,0,0,1,58.1172,116.2869c-.05-.0015-.1-.0088-.15-.0088a6.9166,6.9166,0,0,0-3.237,13.0347A109.0574,109.0574,0,0,1,324.67,228.0983Zm12.2515-18.6274a3.6677,3.6677,0,1,1-1.6758-4.9058A3.6669,3.6669,0,0,1,336.9213,209.4709Z"/><path class="cls-3" d="M353.0539,138.31A130.7782,130.7782,0,0,0,286.425,62.7311a132.8942,132.8942,0,0,0-51.6375-13.39A131.0557,131.0557,0,0,0,173.5812,9.1879a6.9184,6.9184,0,0,0-6.914-7.0083h0a6.8711,6.8711,0,0,0-6.11,3.6882,130.9559,130.9559,0,0,0-25.8481-2.62h0A131.4263,131.4263,0,0,0,16.7743,76.66C-4.726,119.6657-1.7,175.1217,25.7682,241.5a495.5641,495.5641,0,0,0,39.4607,75.6162L86.883,350.14l39.37-3.0771a499.27,499.27,0,0,0,83.9379-14.9878c69.3785-18.793,115.2713-50.1563,136.4031-93.2178A130.7832,130.7832,0,0,0,353.0539,138.31ZM163.3732,7.4872a3.6675,3.6675,0,1,1,1.676,4.9063A3.6668,3.6668,0,0,1,163.3732,7.4872ZM343.6708,237.4225c-20.7011,42.1846-65.8967,72.9727-134.3315,91.51a505.0891,505.0891,0,0,1-83.34,14.8838L88.55,346.7433,67.9523,315.3307a491.8364,491.8364,0,0,1-39.175-75.0752C1.6779,174.7687-1.3748,120.2092,19.7048,78.08A127.8173,127.8173,0,0,1,159.7511,9.026a6.9082,6.9082,0,0,0,13.0152,3.3191A127.7312,127.7312,0,0,1,233.2133,52.53,129.5521,129.5521,0,0,1,284.99,65.6537a128.1806,128.1806,0,0,1,58.68,171.7688Z"/><path class="cls-4" d="M292.9672,158.8366a68.5944,68.5944,0,0,0-64.6084-46.1616,66.6356,66.6356,0,0,0-27.5437,5.9751A68,68,0,0,0,73.64,104.91a70.6778,70.6778,0,0,0-6.625,21.7364,6.9166,6.9166,0,0,0-1.9175,13.0361,6.9794,6.9794,0,0,0,.948.3735c-.1152,21.4356,6.0054,47.229,18.3936,77.166a442.5181,442.5181,0,0,0,33.8887,65.0772l1.0561,1.6108,1.9207-.1494a446.4665,446.4665,0,0,0,72.2844-12.9717c50.9717-13.8071,83.2715-33.9619,96.0022-59.9043A67.7016,67.7016,0,0,0,292.9672,158.8366ZM64.8566,131.8532a3.6669,3.6669,0,1,1,1.6758,4.9062A3.6659,3.6659,0,0,1,64.8566,131.8532ZM286.6684,209.45c-29.6582,60.4365-165.6172,71.0635-165.6172,71.0635S69.2221,201.4479,69.36,140.2741a6.9162,6.9162,0,0,0,1.8371-13.02,6.9493,6.9493,0,0,0-.8874-.3531,66.9966,66.9966,0,0,1,6.2539-20.5566,64.6742,64.6742,0,0,1,86.7935-29.65c19.3017,9.4722,31.4135,27.1944,35.1845,46.7129a63.0535,63.0535,0,0,1,29.8177-7.4761A65.0259,65.0259,0,0,1,286.6684,209.45Z"/></svg>