<?xml version="1.0" encoding="utf-8"?>
<!-- Generator: Adobe Illustrator 24.0.3, SVG Export Plug-In . SVG Version: 6.00 Build 0)  -->
<svg version="1.1" id="Layer_1" xmlns="http://www.w3.org/2000/svg" xmlns:xlink="http://www.w3.org/1999/xlink" x="0px" y="0px"
	 viewBox="0 0 255.97 242.73" style="enable-background:new 0 0 255.97 242.73;" xml:space="preserve">
<style type="text/css">
	.st0{fill:none;stroke:#F4F2ED;stroke-width:8;stroke-miterlimit:10;}
	.st1{fill:#FFFFFF;}
	.st2{fill:#F4F2ED;}
	.st3{fill:none;stroke:#070707;stroke-width:4;stroke-miterlimit:10;}
	.st4{opacity:0.6;}
	.st5{fill:none;stroke:#F1DB95;stroke-width:3;stroke-miterlimit:10;}
	.st6{fill:url(#SVGID_1_);stroke:#A8ACAF;stroke-miterlimit:10;}
	.st7{fill:url(#SVGID_2_);stroke:#CCAA1B;stroke-miterlimit:10;}
	.st8{fill:url(#SVGID_3_);stroke:#4B4D4F;stroke-miterlimit:10;}
	.st9{fill:url(#SVGID_4_);stroke:#4B4D4F;stroke-miterlimit:10;}
	.st10{fill:#4B4D4F;}
</style>
<g>
	<path class="st0" d="M121.74,91.49H78.2V73.04c0-12.02,9.75-21.77,21.77-21.77h0c12.02,0,21.77,9.75,21.77,21.77V91.49z"/>
	<path class="st1" d="M101.34,136.03H66.32c-8.8,0-15.94-7.14-15.94-15.94v-17.56c0-8.8,7.14-15.94,15.94-15.94h50.97v33.5
		C117.29,128.9,110.15,136.03,101.34,136.03z"/>
	<path class="st2" d="M84.4,135.2H31.05c-3.75,0-6.78-3.04-6.78-6.78V92.54c0-3.75,3.04-6.78,6.78-6.78H84.4
		c3.75,0,6.78,3.04,6.78,6.78v35.88C91.18,132.16,88.14,135.2,84.4,135.2z"/>
	<path class="st3" d="M35.83,85.75"/>
	<g>
		<path class="st1" d="M62.59,108.39C62.59,108.39,62.59,108.39,62.59,108.39c-2.8,2.13-5.74,2.25-8,1.18
			c-3.69-1.76-5.57-6.7-2.09-11.27C59.87,92.68,68.2,101.02,62.59,108.39z"/>
		<polygon class="st1" points="57.66,97.07 52.25,124.38 62.58,124.38 		"/>
	</g>
</g>
<g class="st4">
	<line class="st5" x1="16.83" y1="204.2" x2="238.83" y2="204.2"/>
	<g>
		<path class="st0" d="M121.26,92.42H77.72V73.97c0-12.02,9.75-21.77,21.77-21.77h0c12.02,0,21.77,9.75,21.77,21.77V92.42z"/>
		<path class="st1" d="M100.86,136.96H65.83c-8.8,0-15.94-7.14-15.94-15.94v-17.56c0-8.8,7.14-15.94,15.94-15.94h50.97v33.5
			C116.8,129.83,109.66,136.96,100.86,136.96z"/>
		<path class="st2" d="M83.91,136.13H30.57c-3.75,0-6.78-3.04-6.78-6.78V93.47c0-3.75,3.04-6.78,6.78-6.78h53.35
			c3.75,0,6.78,3.04,6.78,6.78v35.88C90.7,133.09,87.66,136.13,83.91,136.13z"/>
		<path class="st3" d="M35.35,86.69"/>
		<g>
			<path class="st1" d="M62.1,109.32C62.1,109.32,62.1,109.32,62.1,109.32c-2.8,2.13-5.74,2.25-8,1.18
				c-3.69-1.76-5.57-6.7-2.09-11.27C59.38,93.61,67.72,101.95,62.1,109.32z"/>
			<polygon class="st1" points="57.18,98 51.77,125.31 62.1,125.31 			"/>
		</g>
	</g>
	<linearGradient id="SVGID_1_" gradientUnits="userSpaceOnUse" x1="139.3385" y1="146.5041" x2="154.9742" y2="162.1398">
		<stop  offset="0.0214" style="stop-color:#FCF9EE"/>
		<stop  offset="0.0852" style="stop-color:#E8E6DD"/>
		<stop  offset="0.2158" style="stop-color:#C6C5C0"/>
		<stop  offset="0.3397" style="stop-color:#ADADAA"/>
		<stop  offset="0.4527" style="stop-color:#9E9E9D"/>
		<stop  offset="0.5449" style="stop-color:#999999"/>
		<stop  offset="0.6298" style="stop-color:#9D9D9D"/>
		<stop  offset="0.722" style="stop-color:#AAAAAA"/>
		<stop  offset="0.8177" style="stop-color:#C0C0C0"/>
		<stop  offset="0.915" style="stop-color:#DEDEDE"/>
		<stop  offset="1" style="stop-color:#FFFFFF"/>
	</linearGradient>
	<path class="st6" d="M145.86,142.63c-1.42,3.03-4.37,9.65-5.48,13.44c-0.96,3.28-3.13,16.06-3.13,16.06s16.32-10.15,19.71-12.52
		c4.6-3.2,11.23-11.53,11.23-11.53l-1.74-2.19l-15.98-10.52C150.47,135.38,146.81,140.6,145.86,142.63z"/>
	<linearGradient id="SVGID_2_" gradientUnits="userSpaceOnUse" x1="153.043" y1="130.1086" x2="169.5985" y2="146.664">
		<stop  offset="0.0214" style="stop-color:#FCF9EE"/>
		<stop  offset="0.0954" style="stop-color:#F2E4B2"/>
		<stop  offset="0.1713" style="stop-color:#E9D17D"/>
		<stop  offset="0.2455" style="stop-color:#E1C250"/>
		<stop  offset="0.3164" style="stop-color:#DCB62D"/>
		<stop  offset="0.3831" style="stop-color:#D7AD14"/>
		<stop  offset="0.444" style="stop-color:#D5A805"/>
		<stop  offset="0.4936" style="stop-color:#D4A600"/>
		<stop  offset="0.5515" style="stop-color:#D5A804"/>
		<stop  offset="0.6144" style="stop-color:#D7AC11"/>
		<stop  offset="0.6797" style="stop-color:#DBB427"/>
		<stop  offset="0.7467" style="stop-color:#E0BE46"/>
		<stop  offset="0.8149" style="stop-color:#E6CC6D"/>
		<stop  offset="0.8842" style="stop-color:#EEDD9D"/>
		<stop  offset="0.9531" style="stop-color:#F8F0D5"/>
		<stop  offset="1" style="stop-color:#FFFFFF"/>
	</linearGradient>
	<polygon class="st7" points="164.48,118.67 178.86,130.22 168.18,148.08 150.32,153.09 150.32,135.88 	"/>
	<linearGradient id="SVGID_3_" gradientUnits="userSpaceOnUse" x1="177.2186" y1="84.8249" x2="205.9825" y2="108.9606">
		<stop  offset="0" style="stop-color:#252525"/>
		<stop  offset="0.4853" style="stop-color:#9A9999"/>
		<stop  offset="1" style="stop-color:#090909"/>
	</linearGradient>
	<path class="st8" d="M156.06,119.78l24.48,19.49c0,0,6.81-17.53,15.53-27.94c8.08-9.65,19.65-15.34,19.65-15.34l14.3-19.57
		l-29-19.97l-12.87,18.16c0,0-0.86,11.67-10.66,24.77C169.15,110.52,156.06,119.78,156.06,119.78z"/>
	<linearGradient id="SVGID_4_" gradientUnits="userSpaceOnUse" x1="210.434" y1="37.7014" x2="244.7089" y2="66.4615">
		<stop  offset="0" style="stop-color:#252525"/>
		<stop  offset="0.4853" style="stop-color:#9A9999"/>
		<stop  offset="1" style="stop-color:#090909"/>
	</linearGradient>
	<polyline class="st9" points="239.8,31.2 215.89,31.2 196.87,57.47 231.1,81.71 239.8,72.31 	"/>
	<g>
		<g>
			<path class="st10" d="M51.09,194.75c5.6-4.37,11.5-8.52,16.69-13.38c4.1-3.84,7.99-8.74,8.54-14.54
				c0.41-4.26-2.21-10.37-7.5-8.75c-6.83,2.1-5.46,10.78-4.76,16.1c1.15,8.68,2.57,17.32,4.24,25.91c0.08,0.42,0.73,0.31,0.74-0.1
				c0.03-4.25,1.74-8.27,4.78-11.23c-0.21-0.06-0.42-0.11-0.63-0.17c0.68,3.25,1.82,7.32,5.64,7.97c3.57,0.61,4.99-3.12,5.93-5.84
				c2.72-7.85,2.45-16.6-0.65-24.29c-0.13-0.32-0.62-0.39-0.72,0c-2.1,8.13-2.63,16.64-1.44,24.96c0.36,2.5,1.37,5.9,4.51,5.78
				c3.24-0.12,5.26-3.77,6.4-6.33c1.74-3.93,2.44-8.24,2.08-12.51c-0.25,0.03-0.49,0.07-0.74,0.1c2.63,10.97,2.66,22.43,0.08,33.41
				c0.18-0.07,0.37-0.15,0.55-0.22c-5.98-3.59-8.57-11.19-5.73-17.62c1.35-3.06,3.67-5.37,6.58-6.98c2.31-1.28,4.79-2.24,7.03-3.65
				c2.17-1.37,3.97-3.19,4.41-5.81c0.05-0.29-0.16-0.52-0.46-0.46c-2.17,0.41-3.53,2.38-3.77,4.5c-0.27,2.49,1.12,4.65,3.4,5.63
				c2.47,1.06,5.42,0.65,7.62-0.85c2.54-1.73,4.07-4.5,4.99-7.37c-0.24-0.07-0.48-0.13-0.72-0.2c-0.75,2.47-0.99,5.05-0.64,7.61
				c0.28,2.07,0.85,4.54,2.63,5.87c3.51,2.62,8.16-0.94,10.65-3.37c0.35-0.34-0.18-0.87-0.53-0.53c-2.24,2.18-6.86,5.89-9.95,3.09
				c-1.56-1.42-1.98-3.98-2.16-5.98c-0.19-2.19,0.08-4.38,0.72-6.48c0.14-0.46-0.58-0.66-0.72-0.2c-1.45,4.53-5.19,9.33-10.55,8.07
				c-2.21-0.52-3.99-2.22-4.02-4.57c-0.03-2.04,1.15-4.09,3.25-4.49c-0.15-0.15-0.31-0.31-0.46-0.46
				c-0.99,5.86-8.63,7.18-12.81,10.05c-5.3,3.64-7.74,10.63-5.67,16.75c1.15,3.39,3.48,6.26,6.54,8.11c0.2,0.12,0.5,0.01,0.55-0.22
				c2.61-11.11,2.58-22.71-0.08-33.81c-0.1-0.4-0.77-0.33-0.74,0.1c0.37,4.43-0.39,8.91-2.34,12.93c-0.88,1.82-2.03,3.75-3.89,4.72
				c-2.29,1.2-4.15-0.36-4.83-2.54c-0.61-1.96-0.73-4.12-0.88-6.16c-0.17-2.21-0.22-4.43-0.15-6.65c0.14-4.73,0.83-9.41,2.01-13.99
				c-0.24,0-0.48,0-0.72,0c2.62,6.51,3.2,13.74,1.6,20.58c-0.38,1.61-0.87,3.2-1.49,4.74c-0.63,1.58-1.47,3.54-3.34,3.89
				c-4.18,0.78-5.62-4.41-6.26-7.44c-0.06-0.28-0.44-0.35-0.63-0.17c-3.18,3.1-4.98,7.32-5,11.76c0.25-0.03,0.49-0.07,0.74-0.1
				c-1.32-6.78-2.48-13.59-3.48-20.43c-0.5-3.46-1.09-6.94-1.35-10.42c-0.24-3.16,0.05-6.64,2.55-8.9c2.24-2.03,5.54-2.08,7.38,0.48
				c1.44,2.01,1.73,4.73,1.3,7.11c-0.98,5.45-4.64,9.86-8.62,13.51c-5.1,4.68-10.81,8.73-16.26,12.99
				C50.18,194.51,50.71,195.04,51.09,194.75L51.09,194.75z"/>
		</g>
	</g>
</g>
</svg>
