<svg xmlns="http://www.w3.org/2000/svg" xmlns:xlink="http://www.w3.org/1999/xlink" viewBox="0 0 322 302"><defs><style>.cls-1{fill:#9bdaf1;}.cls-2{fill:none;}.cls-3{clip-path:url(#clip-path);}.cls-4{fill:#102e51;}.cls-5{fill:#f9c642;}.cls-6{fill:#4aa564;}.cls-7{fill:#205393;}.cls-8{fill:#fad980;}.cls-9{fill:#00a6d2;}</style><clipPath><path class="cls-1" d="M160.6717,242.0154s109.834-64.9769,109.834-127.9748a60.53,60.53,0,0,0-60.6891-60.6891,59.676,59.676,0,0,0-48.8151,24.7374c-11.2143-14.8425-28.6954-24.7374-48.8151-24.7374a60.53,60.53,0,0,0-60.6891,60.6891c-.66,62.9979,109.1744,127.9748,109.1744,127.9748"/></clipPath></defs><title>Hero heart</title><path class="cls-1" d="M160.6717,242.0154s109.834-64.9769,109.834-127.9748a60.53,60.53,0,0,0-60.6891-60.6891,59.676,59.676,0,0,0-48.8151,24.7374c-11.2143-14.8425-28.6954-24.7374-48.8151-24.7374a60.53,60.53,0,0,0-60.6891,60.6891c-.66,62.9979,109.1744,127.9748,109.1744,127.9748"/><path class="cls-2" d="M160.6717,242.0154s109.834-64.9769,109.834-127.9748a60.53,60.53,0,0,0-60.6891-60.6891,59.676,59.676,0,0,0-48.8151,24.7374c-11.2143-14.8425-28.6954-24.7374-48.8151-24.7374a60.53,60.53,0,0,0-60.6891,60.6891c-.66,62.9979,109.1744,127.9748,109.1744,127.9748"/><path class="cls-1" d="M160.6717,242.0154s109.834-64.9769,109.834-127.9748a60.53,60.53,0,0,0-60.6891-60.6891,59.676,59.676,0,0,0-48.8151,24.7374c-11.2143-14.8425-28.6954-24.7374-48.8151-24.7374a60.53,60.53,0,0,0-60.6891,60.6891c-.66,62.9979,109.1744,127.9748,109.1744,127.9748"/><g class="cls-3"><path class="cls-4" d="M234.5869,110.9586l-42.3776,42.26a22.5468,22.5468,0,0,1-14.5392,6.2079h-3.4619c-1.9507-1.3492-2.6088-4.0753-2.7392-6.6733a10.9581,10.9581,0,0,0,1.4633-.6811,23.2228,23.2228,0,0,0,3.7336.29c11.1219,0,16.86-4.959,18.1927-10.265-2.0485,1.0874-4.3651-.7441-5.4459-3.1934-2.35-5.3391,1.5193-10.9353-3.34-22.9911a29.7846,29.7846,0,0,0-2.3188-4.9473c-.1151-.217-.2325-.4362-.3543-.6576l.0133.0886A26.6581,26.6581,0,0,0,160.8038,97.397c-13.6466,0-24.93,10.7736-26.8017,24.7827-1.6631,7.9257.4983,12.41-1.4018,16.724-1.0785,2.4493-3.3973,4.2808-5.4436,3.1934,1.331,5.306,7.0686,10.265,18.19,10.265a29.0006,29.0006,0,0,0,3.4768-.2037,10.7235,10.7235,0,0,0,1.4584.6673c-.0539,2.6029-.6738,5.3095-2.7228,6.6007h-3.2143s-8.844-.5127-14.9343-6.603L86.3972,110.6812c-9.6467-9.6467-24.1167,4.8234-14.47,14.47l59.0623,58.1907a8.6574,8.6574,0,0,1,2.6308,6.1388v89.39L188.395,276.88V189.4809a8.6579,8.6579,0,0,1,2.6309-6.139l58.0311-57.9132C258.7036,115.782,244.2335,101.3119,234.5869,110.9586Z"/><circle class="cls-5" cx="209.1057" cy="72.1215" r="27.9172"/></g><path class="cls-6" d="M269.7478,54.1093a84.1683,84.1683,0,0,0-59.9312-24.7579A85.2247,85.2247,0,0,0,170.96,38.6926a82.8413,82.8413,0,0,0-10.099,6.1524A84.5554,84.5554,0,0,0,27.4974,113.9111C27.2,147.296,48.2187,182.8748,89.9716,219.66a429.2119,429.2119,0,0,0,58.48,43.0113l12.22,7.2292,12.22-7.2292a414.5525,414.5525,0,0,0,35.043-23.9052,5.2938,5.2938,0,0,0,8.3227-6.44c4.9483-3.9248,10.052-8.1467,15.17-12.6424,41.8558-36.7653,63.0785-72.3087,63.0785-105.6433A84.1686,84.1686,0,0,0,269.7478,54.1093ZM211.7207,238.3624a3.3122,3.3122,0,1,1,3.3123-3.3122A3.3123,3.3123,0,0,1,211.7207,238.3624Zm18.3868-20.1813c-5.1259,4.5025-10.2365,8.7286-15.1891,12.6548a5.26,5.26,0,0,0-3.1977-1.0979,5.309,5.309,0,0,0-4.8988,7.3629A412.4843,412.4843,0,0,1,171.8732,260.95l-11.2015,6.6267L149.47,260.95A426.9748,426.9748,0,0,1,91.2937,218.16c-41.3-36.3863-62.0905-71.4582-61.7963-104.238A82.5672,82.5672,0,0,1,160.862,47.314a80.9268,80.9268,0,0,1,11.0133-6.8432,83.2162,83.2162,0,0,1,37.9413-9.1194,82.53,82.53,0,0,1,82.6892,82.6892C292.5058,146.7744,271.5119,181.8124,230.1075,218.1811Z"/><path class="cls-7" d="M288.1326,35.7245a109.9978,109.9978,0,0,0-78.316-32.3731,111.4417,111.4417,0,0,0-48.9941,11.3373A110.4076,110.4076,0,0,0,112.1863,3.3514,112.5505,112.5505,0,0,0,94.9292,4.6968,5.3,5.3,0,0,0,84.6451,6.5122c0,.092.0225.1779.0272.2688A110.5524,110.5524,0,0,0,1.4975,113.79C1.1728,155.0259,25.1554,197.207,72.784,239.1688a458.4756,458.4756,0,0,0,62.43,45.88L160.6717,300.11,186.13,285.0489a462.0361,462.0361,0,0,0,62.4561-45.8309c19.036-16.7208,34.4913-33.6251,45.9368-50.2433,17.2411-25.0334,25.9831-50.2448,25.9831-74.9342A109.9982,109.9982,0,0,0,288.1326,35.7245ZM89.9573,3.2a3.3122,3.3122,0,1,1-3.3122,3.3122A3.3121,3.3121,0,0,1,89.9573,3.2ZM247.2659,237.7154a459.7568,459.7568,0,0,1-62.1544,45.6122l-24.44,14.4584-24.44-14.4584a456.2314,456.2314,0,0,1-62.1258-45.66C26.9242,196.1,3.1694,154.4208,3.4975,113.7841A108.55,108.55,0,0,1,85.1435,8.7256a5.2941,5.2941,0,0,0,10.11-2.0548,110.5293,110.5293,0,0,1,16.9331-1.3194,108.3882,108.3882,0,0,1,48.6351,11.5717A109.3856,109.3856,0,0,1,209.8166,5.3514,108.5292,108.5292,0,0,1,318.5058,114.0406C318.5058,154.5831,294.5373,196.1934,247.2659,237.7154Z"/><path class="cls-8" d="M260.5555,63.3017a71.8555,71.8555,0,0,0-99.6635-1.6983A71.551,71.551,0,0,0,40.4972,113.9847a75.0622,75.0622,0,0,0,4.5743,25.7633,5.2939,5.2939,0,0,0,2.5643,9.9354,5.2383,5.2383,0,0,0,1.4563-.2285c9.1859,19.2928,25.7044,39.51,49.4732,60.451a414.6266,414.6266,0,0,0,56.5055,41.5769l5.6009,3.3133,5.6008-3.3133a418.17,418.17,0,0,0,56.5756-41.5661c38.9224-34.1886,58.6577-66.4459,58.6577-95.8761A71.2537,71.2537,0,0,0,260.5555,63.3017ZM44.3235,144.3712a3.3122,3.3122,0,1,1,3.3123,3.3122A3.3122,3.3122,0,0,1,44.3235,144.3712ZM221.5281,208.414a415.8765,415.8765,0,0,1-56.2739,41.3473l-4.5825,2.711-4.5825-2.711a412.3234,412.3234,0,0,1-56.2017-41.3562c-23.5952-20.7879-39.9655-40.804-49.02-59.8479a5.2921,5.2921,0,0,0-3.2317-9.4982,5.23,5.23,0,0,0-.6688.0676,73.155,73.155,0,0,1-4.47-25.1323A69.5656,69.5656,0,0,1,160.9,64.3763a69.6559,69.6559,0,0,1,118.6056,49.6643C279.5058,142.87,259.9993,174.6219,221.5281,208.414Z"/><path class="cls-9" d="M309.9372,95.6915a5.3168,5.3168,0,0,0-5.2869-5.31,97.5773,97.5773,0,0,0-94.8337-74.03,98.2828,98.2828,0,0,0-44.8074,10.783q-2.1,1.0812-4.1423,2.2648A97.5763,97.5763,0,0,0,14.4974,113.8451c-.3125,37.3128,22.1882,76.1946,66.88,115.5694A443.8416,443.8416,0,0,0,141.8326,273.86l18.8391,11.1451L179.5108,273.86a447.3723,447.3723,0,0,0,60.4957-44.4092c44.7893-39.3418,67.4993-78.1715,67.4993-115.41a99.6656,99.6656,0,0,0-.9112-13.4251A5.313,5.313,0,0,0,309.9372,95.6915ZM238.6867,227.9483a445.13,445.13,0,0,1-60.1942,44.1905l-17.8208,10.5426-17.8208-10.5426A441.5945,441.5945,0,0,1,82.7,227.9139c-44.2395-38.9762-66.5122-77.35-66.2025-114.0587A95.6069,95.6069,0,0,1,160.8647,31.72q2.4849-1.4812,5.06-2.8076a96.2736,96.2736,0,0,1,43.892-10.5612,95.5791,95.5791,0,0,1,92.8672,72.4073,5.3051,5.3051,0,0,0,1.9411,10.245l.0037,0a97.6556,97.6556,0,0,1,.8772,13.0372C305.5058,150.6788,283.0246,189.0029,238.6867,227.9483ZM304.6248,99.0908a3.3994,3.3994,0,1,1,3.3995-3.3992A3.4031,3.4031,0,0,1,304.6248,99.0908Z"/></svg>