<svg id="Layer_1" data-name="Layer 1" xmlns="http://www.w3.org/2000/svg" viewBox="0 0 224 224"><defs><style>.cls-1{fill:#cdecf8;}.cls-2{fill:#f9c642;}.cls-3{fill:none;stroke:#9bdaf1;stroke-linecap:round;stroke-miterlimit:10;stroke-width:10px;}.cls-4{fill:#fff;}.cls-5{fill:#9bdaf1;}</style></defs><title>Patient – clock</title><circle class="cls-1" cx="112" cy="112" r="98.0001" transform="translate(-46.3919 112) rotate(-45)"/><path class="cls-2" d="M222,112A110,110,0,0,0,34.2182,34.2183,110,110,0,0,0,112,222a109.152,109.152,0,0,0,68.48-23.9253,6.4948,6.4948,0,0,0,9.6587-8.6586A109.2667,109.2667,0,0,0,222,112ZM112,220A108,108,0,0,1,35.6325,35.6324a107.9978,107.9978,0,0,1,153.0289,152.434,6.4912,6.4912,0,0,0-9.3588,8.39A107.167,107.167,0,0,1,112,220Zm73.0756-22.0172a4.5,4.5,0,1,1,4.5-4.5A4.505,4.505,0,0,1,185.0757,197.9828Z"/><line class="cls-3" x1="91.9599" y1="144.2343" x2="78.6964" y2="163.7656"/><line class="cls-3" x1="132.0383" y1="144.2343" x2="145.3018" y2="163.7656"/><path class="cls-4" d="M111.9987,161.7356a51.2547,51.2547,0,1,1,36.4492-15.0118A51.1667,51.1667,0,0,1,111.9987,161.7356Z"/><path class="cls-5" d="M111.9991,60.8141A49.2553,49.2553,0,1,1,76.9644,75.24a49.255,49.255,0,0,1,35.0347-14.4261m0-4a53.2551,53.2551,0,1,0,37.8631,15.5977,53.1543,53.1543,0,0,0-37.8631-15.5977Z"/><path class="cls-2" d="M132.913,110.4056a2.2031,2.2031,0,0,0-2.2221-2.2221H116.7047a4.9661,4.9661,0,0,0-4.7056-3.1371,5.12,5.12,0,0,0-3.3985,1.1764L89.3859,95.1123c-.7842-.5228-1.9606,0-2.6142,1.0457a1.9836,1.9836,0,0,0,.3921,2.745l19.6068,11.3719h0a5.2119,5.2119,0,0,0,9.9341,2.2221h13.9862A2.0981,2.0981,0,0,0,132.913,110.4056Z"/><path class="cls-2" d="M74.4848,110.2749a1.73,1.73,0,0,0-1.6993-1.6993H69.6484a1.7361,1.7361,0,1,0,0,3.3986h3.1371A1.73,1.73,0,0,0,74.4848,110.2749Z"/><path class="cls-2" d="M111.9991,147.7892a1.73,1.73,0,0,0-1.6992,1.6993v3.1371a1.736,1.736,0,1,0,3.3985,0v-3.1371A1.73,1.73,0,0,0,111.9991,147.7892Z"/><path class="cls-2" d="M154.35,108.5756h-3.1371a1.6993,1.6993,0,0,0,0,3.3986H154.35a1.7361,1.7361,0,1,0,0-3.3986Z"/><path class="cls-2" d="M111.9991,72.7605a1.73,1.73,0,0,0,1.6993-1.6992V67.9242a1.736,1.736,0,1,0-3.3985,0v3.1371A1.73,1.73,0,0,0,111.9991,72.7605Z"/><path class="cls-2" d="M90.8238,77.2048A1.7267,1.7267,0,0,0,93.83,75.5055l-1.4378-2.745a1.8884,1.8884,0,0,0-2.6142-.9149,2.1351,2.1351,0,0,0-.5229,2.7449Z"/><path class="cls-2" d="M77.23,128.3132l-2.7449,1.5685a1.8884,1.8884,0,0,0-.915,2.6142,2.0012,2.0012,0,0,0,2.7449.5229L79.06,131.45a1.7434,1.7434,0,0,0,.6535-2.3529A1.9913,1.9913,0,0,0,77.23,128.3132Z"/><path class="cls-2" d="M133.1745,143.345a1.7267,1.7267,0,0,0-3.0064,1.6993l1.5685,2.745a1.8884,1.8884,0,0,0,2.6143.9149,2.1351,2.1351,0,0,0,.5228-2.7449Z"/><path class="cls-2" d="M144.4157,91.5831a1.7433,1.7433,0,0,0,2.3528.6535l2.745-1.5685a1.8883,1.8883,0,0,0,.9149-2.6142,2.1351,2.1351,0,0,0-2.7449-.5229L144.9385,89.1a2.1481,2.1481,0,0,0-.5228,2.4836Z"/><path class="cls-2" d="M78.929,89.1,76.184,87.531a2.0012,2.0012,0,0,0-2.7449.5229c-.5229.7842,0,1.9606.915,2.6142l2.7449,1.5685a1.7124,1.7124,0,0,0,2.3528-.6535h0A1.8327,1.8327,0,0,0,78.929,89.1Z"/><path class="cls-2" d="M93.3073,142.6915a1.7125,1.7125,0,0,0-2.3528.6535l-1.5686,2.745a2.0012,2.0012,0,0,0,.5229,2.7449c.7843.5229,1.9607,0,2.6142-.9149l1.5686-2.745A2.2359,2.2359,0,0,0,93.3073,142.6915Z"/><path class="cls-2" d="M149.5135,129.8817l-2.745-1.5685a1.7267,1.7267,0,0,0-1.6993,3.0063l2.745,1.5686a2.0012,2.0012,0,0,0,2.7449-.5229A2.0416,2.0416,0,0,0,149.5135,129.8817Z"/><path class="cls-2" d="M134.22,71.8456c-.7843-.5229-1.9607,0-2.6143.9149l-1.5685,2.745a1.7267,1.7267,0,0,0,3.0064,1.6993l1.5685-2.745A1.8025,1.8025,0,0,0,134.22,71.8456Z"/><path class="cls-5" d="M66.5667,83.7251A54.0861,54.0861,0,0,1,87.92,63.8962,14.7374,14.7374,0,0,0,76.583,57.5256h0A14.7973,14.7973,0,0,0,61.07,71.479h0A14.7472,14.7472,0,0,0,66.5667,83.7251Z"/><path class="cls-5" d="M156.8954,83.7251a54.0861,54.0861,0,0,0-21.3537-19.8289,14.7372,14.7372,0,0,1,11.3374-6.3706h0A14.7973,14.7973,0,0,1,162.3923,71.479h0A14.7472,14.7472,0,0,1,156.8954,83.7251Z"/></svg>