<svg id="Layer_1" data-name="Layer 1" xmlns="http://www.w3.org/2000/svg" xmlns:xlink="http://www.w3.org/1999/xlink" viewBox="0 0 224 224"><defs><style>.cls-1{fill:none;}.cls-2{fill:#cdecf8;}.cls-3{fill:#f9c642;}.cls-4{clip-path:url(#clip-path);}.cls-5{fill:#fff;}.cls-6{fill:#9bdaf1;}</style><clipPath id="clip-path"><circle class="cls-1" cx="112" cy="111.9999" r="98"/></clipPath></defs><title>Patient – documents</title><circle class="cls-2" cx="112" cy="112" r="98"/><path class="cls-3" d="M189.7817,34.2183A110.0934,110.0934,0,0,0,11.87,66.3655a6.4936,6.4936,0,1,0-4.6784,12.115,110.0207,110.0207,0,1,0,182.59-44.2622ZM5,72.4115a4.5,4.5,0,1,1,4.5,4.5A4.505,4.505,0,0,1,5,72.4115Zm183.368,115.9561A108.0464,108.0464,0,0,1,9.1608,78.8944c.1129.0059.2245.0171.3388.0171a6.4963,6.4963,0,0,0,4.1075-11.5322A108.0182,108.0182,0,1,1,188.3676,188.3676Z"/><g class="cls-4"><rect class="cls-5" x="52.9657" y="53.1047" width="98.2861" height="120.7813" rx="9.4482"/><path class="cls-6" d="M141.8036,54.8548a7.6984,7.6984,0,0,1,7.6984,7.6983V164.4372a7.6984,7.6984,0,0,1-7.6984,7.6984h-79.39a7.6983,7.6983,0,0,1-7.6983-7.6984V62.5531a7.6983,7.6983,0,0,1,7.6983-7.6983h79.39m0-3.5h-79.39A11.211,11.211,0,0,0,51.2155,62.5531V164.4372a11.211,11.211,0,0,0,11.1983,11.1984h79.39a11.2111,11.2111,0,0,0,11.1984-11.1984V62.5531a11.2111,11.2111,0,0,0-11.1984-11.1983Z"/><rect class="cls-3" x="82.6835" y="55.6528" width="3.3733" height="33.8562" transform="translate(156.951 -11.7893) rotate(90)"/><rect class="cls-3" x="122.4636" y="58.8285" width="3.3733" height="27.5048" transform="translate(196.7311 -51.5694) rotate(90)"/><rect class="cls-3" x="87.4571" y="74.6135" width="3.3733" height="43.4033" transform="translate(185.4588 7.1714) rotate(90)"/><rect class="cls-3" x="127.2372" y="87.3363" width="3.3733" height="17.9576" transform="translate(225.2389 -32.6087) rotate(90)"/><rect class="cls-3" x="79.5076" y="70.6962" width="3.3733" height="27.5044" transform="translate(165.6427 3.2541) rotate(90)"/><rect class="cls-3" x="119.1361" y="67.3685" width="3.3733" height="34.1599" transform="translate(205.2711 -36.3743) rotate(90)"/><rect class="cls-3" x="76.0027" y="97.9354" width="3.3733" height="20.4945" transform="translate(185.872 30.4933) rotate(90)"/><rect class="cls-3" x="115.6311" y="87.5978" width="3.3733" height="41.1697" transform="translate(225.5004 -9.1351) rotate(90)"/><rect class="cls-3" x="82.6835" y="102.0699" width="3.3733" height="33.8562" transform="translate(203.3682 34.6278) rotate(90)"/><rect class="cls-3" x="122.4636" y="105.2456" width="3.3733" height="27.5048" transform="translate(243.1483 -5.1523) rotate(90)"/><rect class="cls-3" x="87.4571" y="121.0306" width="3.3733" height="43.4033" transform="translate(231.876 53.5885) rotate(90)"/><rect class="cls-3" x="127.2372" y="133.7534" width="3.3733" height="17.9576" transform="translate(271.6561 13.8084) rotate(90)"/><rect class="cls-3" x="79.5076" y="117.1133" width="3.3733" height="27.5044" transform="translate(212.0598 49.6712) rotate(90)"/><rect class="cls-3" x="119.1361" y="113.7856" width="3.3733" height="34.1599" transform="translate(251.6882 10.0428) rotate(90)"/><rect class="cls-3" x="76.0027" y="144.3525" width="3.3733" height="20.4945" transform="translate(232.2891 76.9104) rotate(90)"/><rect class="cls-3" x="115.6311" y="134.0149" width="3.3733" height="41.1697" transform="translate(271.9175 37.282) rotate(90)"/><rect class="cls-5" x="93.1796" y="94.5959" width="98.2861" height="120.7813" rx="9.4482"/><path class="cls-6" d="M182.0172,96.346a7.6983,7.6983,0,0,1,7.6983,7.6984V205.9286a7.6982,7.6982,0,0,1-7.6983,7.6983h-79.39a7.6983,7.6983,0,0,1-7.6984-7.6983V104.0444a7.6984,7.6984,0,0,1,7.6984-7.6984h79.39m0-3.5h-79.39a11.2111,11.2111,0,0,0-11.1984,11.1984V205.9286a11.211,11.211,0,0,0,11.1984,11.1983h79.39a11.211,11.211,0,0,0,11.1983-11.1983V104.0444A11.2111,11.2111,0,0,0,182.0172,92.846Z"/><rect class="cls-3" x="122.8971" y="97.1441" width="3.3733" height="33.8562" transform="translate(238.6559 -10.5116) rotate(90)"/><rect class="cls-3" x="162.6772" y="100.3198" width="3.3733" height="27.5048" transform="translate(278.436 -50.2917) rotate(90)"/><rect class="cls-3" x="127.6707" y="116.1048" width="3.3733" height="43.4033" transform="translate(267.1638 8.4491) rotate(90)"/><rect class="cls-3" x="167.4508" y="128.8276" width="3.3733" height="17.9576" transform="translate(306.9439 -31.331) rotate(90)"/><rect class="cls-3" x="119.7212" y="112.1875" width="3.3733" height="27.5044" transform="translate(247.3476 4.5319) rotate(90)"/><rect class="cls-3" x="159.3496" y="108.8598" width="3.3733" height="34.1599" transform="translate(286.976 -35.0966) rotate(90)"/><rect class="cls-3" x="116.2163" y="139.4267" width="3.3733" height="20.4945" transform="translate(267.5769 31.771) rotate(90)"/><rect class="cls-3" x="155.8447" y="129.0891" width="3.3733" height="41.1697" transform="translate(307.2053 -7.8574) rotate(90)"/><rect class="cls-3" x="122.8971" y="143.5612" width="3.3733" height="33.8562" transform="translate(285.0731 35.9056) rotate(90)"/><rect class="cls-3" x="162.6772" y="146.7369" width="3.3733" height="27.5048" transform="translate(324.8532 -3.8745) rotate(90)"/><rect class="cls-3" x="127.6707" y="162.5219" width="3.3733" height="43.4033" transform="translate(313.5809 54.8662) rotate(90)"/><rect class="cls-3" x="167.4508" y="175.2447" width="3.3733" height="17.9576" transform="translate(353.361 15.0861) rotate(90)"/><rect class="cls-3" x="119.7212" y="158.6046" width="3.3733" height="27.5044" transform="translate(293.7647 50.949) rotate(90)"/><rect class="cls-3" x="159.3496" y="155.2769" width="3.3733" height="34.1599" transform="translate(333.3931 11.3205) rotate(90)"/><rect class="cls-3" x="116.2163" y="185.8438" width="3.3733" height="20.4945" transform="translate(313.994 78.1882) rotate(90)"/><rect class="cls-3" x="155.8447" y="175.5062" width="3.3733" height="41.1697" transform="translate(353.6224 38.5597) rotate(90)"/></g></svg>