<svg id="Layer_1" data-name="Layer 1" xmlns="http://www.w3.org/2000/svg" xmlns:xlink="http://www.w3.org/1999/xlink" viewBox="0 0 224 224"><defs><style>.cls-1,.cls-8{fill:none;}.cls-2{fill:#cdecf8;}.cls-3{clip-path:url(#clip-path);}.cls-4{fill:#fff;}.cls-5{fill:#f9c642;}.cls-6{fill:#2dff3c;}.cls-7{fill:#9bdaf1;}.cls-8{stroke:#f9c642;stroke-linecap:round;stroke-linejoin:round;stroke-width:2px;}</style><clipPath id="clip-path"><circle class="cls-1" cx="111.9999" cy="111.9999" r="98"/></clipPath></defs><title>Patient – teamwork</title><circle class="cls-2" cx="112" cy="112" r="98"/><g class="cls-3"><rect class="cls-4" x="92.6685" y="193.1586" width="40.3789" height="39.2188"/><path class="cls-5" d="M131.5471,194.6584v36.2192H94.1682V194.6584h37.3789m3-3H91.1682v42.2192h43.3789V191.6584Z"/><polygon class="cls-1" points="131.405 182.425 131.366 181.018 95.953 181.018 95.953 182.425 131.405 182.425"/><path class="cls-4" d="M132.9539,173.3366l.3563-8.9076c5.3245-5.1569,5.8742-8.0555,5.8742-16.221l.282-44.6127a4.251,4.251,0,0,0-4.3853-4.0894c-3.382,0-3.5568,3.4157-3.5568,4.0994a1.2362,1.2362,0,0,1-.05.3418l-.1412,16.7162a2.1076,2.1076,0,0,1-4.2145-.0259l.2722-36.9206a4.4471,4.4471,0,0,0-8.8662.0138l-.2524,33.3659a2.0945,2.0945,0,0,1-2.07,2.0566,2.1561,2.1561,0,0,1-1.54-.6141,2.0329,2.0329,0,0,1-.606-1.47l.2523-33.3518c0-.0358.004-.0756.0059-.1133-.0019-.0359-.0059-.0676-.0059-.0936l-.0239-2.9427a4.4543,4.4543,0,0,0-8.8822-.016l.03,37.4234a2.11,2.11,0,0,1-4.2185.004L101.19,86.7892a1.4885,1.4885,0,0,1-.06-.3915,4.4,4.4,0,0,0-8.7789,0l-.2006,30.6569c-1.4174,2.2141-.04,13.73-1.5819,13.73s-.9217-1.2288-1.0509-7.1819c-.1274-5.9533-1.8193-9.0644-4.46-9.1042-2.6409-.0416-4.66,3.1905-5.1,4.5239-.6057,1.8541-.735,4.8353.4534,18.8565l.0256.0019c-.0066.0887.0015.1769-.0034.2656.1451,1.6839.2969,3.2331.4518,4.7162,1.8793,7.9171,8.9712,15.135,14.1621,18.5446l.9053.5945V181.018h35.4128Z"/><polygon class="cls-6" points="131.405 182.425 95.953 182.425 95.953 181.018 91.936 181.018 91.936 186.445 135.54 186.445 135.385 181.018 131.366 181.018 131.405 182.425"/><path class="cls-7" d="M143.4387,143.3586l.2862-39.7255a8.4377,8.4377,0,0,0-8.6022-8.2423,7.8215,7.8215,0,0,0-3.5568.8286l.0815-12.463c0-4.5443-3.4291-6.6217-8.202-6.6217-1.92,0-5.3238,3.742-6.824,4.8429-1.3831-2.9191-1.0086-.88-4.4026-.88-4.7769,0-10.9994-5.0644-10.9994-.518l.0021-1.1817a8.7518,8.7518,0,0,0-4.4452-1.2143A8.4338,8.4338,0,0,0,88.17,86.4116l-.175,26.063a8.48,8.48,0,0,0-3.2228-.6081,7.6891,7.6891,0,0,0-6.5178,3.1236c-2.12,3.2867-3.2746,8.5285-1.9949,23.4315.1366,1.5949.2786,3.0664.4236,4.4825h.1007c1.8394,9.5061,9.8917,17.51,15.152,21.24V181.018h4.0166V162.0012l-.9053-.5945c-5.1909-3.41-12.2828-10.6275-14.1621-18.5446-.1549-1.4831-.3067-3.0323-.4518-4.7162.0049-.0887-.0032-.1769.0034-.2656l-.0256-.0019c-1.1884-14.0212-.049-17.5147.5566-19.3687.4391-1.3335,1.1445-2.6386,3.7857-2.6386,1.4505,0,2.9827.7457,3.3269,1.8929,0,3.2121.18,10.4756.18,13.8759,0,3.3837,3.89,2.8029,3.89.0925l.2006-45.3347a4.4,4.4,0,0,1,8.7789,0,1.4885,1.4885,0,0,0,.06.3915l.0239,31.1894a2.11,2.11,0,0,0,4.2185-.004l-.03-37.4234a4.4543,4.4543,0,0,1,8.8822.016l.0239,2.9427c0,.026.004.0577.0059.0936-.0019.0377-.0059.0775-.0059.1133l-.2523,33.3518a2.0329,2.0329,0,0,0,.606,1.47,2.1561,2.1561,0,0,0,1.54.6141,2.0945,2.0945,0,0,0,2.07-2.0566l.2524-33.3659a4.4471,4.4471,0,0,1,8.8662-.0138l-.2722,36.9206a2.1076,2.1076,0,0,0,4.2145.0259l.1412-16.7162a1.2362,1.2362,0,0,0,.05-.3418c0-.6837.1748-4.0994,3.5568-4.0994a4.251,4.251,0,0,1,4.3853,4.0894l-.282,39.73a28.4146,28.4146,0,0,1-8.6009,20.5724l.5092,2.5757.2729,14.5451h4.02l-.3086-15.7171A32.5186,32.5186,0,0,0,143.4387,143.3586Z"/><path class="cls-4" d="M89.6851,169.3666h47.5762a1.6865,1.6865,0,0,1,1.6865,1.6865v23.2891a1.6855,1.6855,0,0,1-1.6855,1.6855H89.6851a1.6865,1.6865,0,0,1-1.6865-1.6865V171.0531A1.6865,1.6865,0,0,1,89.6851,169.3666Z"/><path class="cls-5" d="M137.2617,170.8669a.1862.1862,0,0,1,.1861.186v23.2885a.1862.1862,0,0,1-.1861.1859H89.6846a.1859.1859,0,0,1-.1858-.1859V171.0529a.186.186,0,0,1,.1858-.186h47.5771m0-3H89.6846a3.1857,3.1857,0,0,0-3.1858,3.186v23.2885a3.1857,3.1857,0,0,0,3.1858,3.1859h47.5771a3.186,3.186,0,0,0,3.1861-3.1859V171.0529a3.1861,3.1861,0,0,0-3.1861-3.186Z"/><line class="cls-8" x1="95.4926" y1="177.1611" x2="95.4926" y2="189.2298"/><rect class="cls-4" x="170.5995" y="38.9054" width="39.2199" height="40.3795" transform="translate(3.0446 127.2214) rotate(-37.2602)"/><path class="cls-5" d="M193.3079,33.2557l22.63,29.75L187.1113,84.9338l-22.63-29.75,28.8269-21.9281m.5713-4.2039L160.2769,54.6124,186.54,89.1378,220.1421,63.577,193.8792,29.0518Z"/><polygon class="cls-1" points="151.903 65.924 150.826 66.792 171.887 94.479 172.988 93.642 151.903 65.924"/><path class="cls-4" d="M143.876,70.1186,136.7,75.1376c-7.1985-1.0958-9.7917.1982-16.1757,5.0545l-35.0474,26.312a4.1758,4.1758,0,0,0-.5891,5.8607c2.0113,2.6442,4.7858.7494,5.32.3428a1.2148,1.2148,0,0,1,.2967-.1645l13.1532-9.8311a2.07,2.07,0,0,1,2.4863,3.31l-29.0276,21.745A4.3685,4.3685,0,0,0,82.4,134.691l26.2367-19.6463a2.0573,2.0573,0,0,1,2.8393.3957,2.1173,2.1173,0,0,1,.4358,1.5692,1.9973,1.9973,0,0,1-.7892,1.3483l-26.2256,19.638c-.028.0213-.0615.0419-.0921.0628-.0269.0228-.0493.0447-.07.06l-2.2864,1.7689a4.3756,4.3756,0,0,0,5.27,6.9539l29.2412-22.28a2.0723,2.0723,0,0,1,2.5119,3.2957l-24.3706,18.568a1.4647,1.4647,0,0,1-.2707.28,4.3219,4.3219,0,0,0,5.221,6.8635l24.088-18.0756c2.574-.2087,10.758-8.1341,11.675-6.9286s-.4126,1.4514-4.99,5.0929-6.0048,6.8132-4.4654,8.9015,5.2662,1.7464,6.57,1.2966c1.81-.6291,4.2175-2.301,14.4729-11.569l-.0138-.0212c.0733-.0475.1375-.1064.21-.1553,1.23-1.1148,2.3512-2.1549,3.4186-3.158,5.0722-6.1778,6.4976-16.0152,6.0762-22.1015l-.0736-1.0614,14.8679-11.31L150.8262,66.792Z"/><polygon class="cls-6" points="151.903 65.924 172.988 93.642 171.887 94.479 174.276 97.619 178.519 94.392 152.587 60.301 148.436 63.649 150.826 66.792 151.903 65.924"/><path class="cls-7" d="M114.2026,79.75,82.9737,103.1523A8.2885,8.2885,0,0,0,81.6456,114.78a7.6825,7.6825,0,0,0,2.7631,2.2881l-9.7924,7.3483a8.3152,8.3152,0,0,0-1.2974,11.6678,8.6822,8.6822,0,0,0,4.4477,3.0936,8.5677,8.5677,0,0,0,.8638,9.0476,8.3215,8.3215,0,0,0,11.5982,1.87l-.9251.7012a8.5967,8.5967,0,0,0,1.6943,4.1975,8.2847,8.2847,0,0,0,11.5515,1.8347L123.03,141.4651a8.3323,8.3323,0,0,0,1.4413,2.8813,7.5531,7.5531,0,0,0,6.3184,3.2382c3.8306-.2971,8.6155-2.512,19.506-12.3758,1.1658-1.0553,2.2318-2.0415,3.2527-2.9971l-.06-.0787c6.3383-7.0916,7.807-18.1473,7.5946-24.4782L174.276,97.6193l-2.3888-3.14-14.8679,11.31.0736,1.0614c.4214,6.0863-1.004,15.9237-6.0762,22.1015-1.0674,1.0031-2.1883,2.0432-3.4186,3.158-.0722.0489-.1364.1078-.21.1553l.0138.0212c-10.2554,9.268-13.6644,10.4548-15.4741,11.084-1.3037.45-2.7436.6744-4.3144-1.3906-.8626-1.134-1.1909-2.7754-.4987-3.7268,2.5114-1.91,8.0832-6.3708,10.7417-8.393,2.6455-2.0124-.1221-4.7083-2.2412-3.0963l-35.5636,26.8049a4.3219,4.3219,0,0,1-5.221-6.8635,1.4647,1.4647,0,0,0,.2707-.28l24.3706-18.568a2.0723,2.0723,0,0,0-2.5119-3.2957l-29.2412,22.28a4.3756,4.3756,0,0,1-5.27-6.9539l2.2864-1.7689c.02-.0155.0428-.0374.07-.06.0306-.0209.0641-.0415.0921-.0628l26.2256-19.638a1.9973,1.9973,0,0,0,.7892-1.3483,2.1173,2.1173,0,0,0-.4358-1.5692,2.0573,2.0573,0,0,0-2.8393-.3957L82.4,134.691a4.3685,4.3685,0,0,1-5.2837-6.9236l29.0276-21.745a2.07,2.07,0,0,0-2.4863-3.31l-13.1532,9.8311a1.2148,1.2148,0,0,0-.2967.1645c-.5346.4066-3.3091,2.3014-5.32-.3428a4.1758,4.1758,0,0,1,.5891-5.8607l31.23-23.4078a27.9126,27.9126,0,0,1,21.2-5.51l1.7108-1.93,11.21-8.8638-2.3906-3.1427L136.3309,73.238A31.9431,31.9431,0,0,0,114.2026,79.75Z"/><path class="cls-4" d="M171.1919,104.5677a1.6788,1.6788,0,0,1-1.3457-.666L141.0415,66.0355a1.69,1.69,0,0,1,.3223-2.3633l18.5351-14.1a1.6868,1.6868,0,0,1,2.3633.3223l28.8047,37.8662a1.6875,1.6875,0,0,1-.3223,2.3633l-18.5351,14.1A1.67,1.67,0,0,1,171.1919,104.5677Z"/><path class="cls-5" d="M160.9175,50.7291a.1822.1822,0,0,1,.15.0735l28.8047,37.8665a.1862.1862,0,0,1-.0356.2607l-18.5354,14.1a.1715.1715,0,0,1-.11.0381.1826.1826,0,0,1-.15-.0735L142.2361,65.1272a.1859.1859,0,0,1,.0356-.26l18.5354-14.1a.1718.1718,0,0,1,.11-.0381m0-3a3.1717,3.1717,0,0,0-1.9265.65l-18.5354,14.1a3.1858,3.1858,0,0,0-.6067,4.4645L168.6531,104.81a3.1857,3.1857,0,0,0,4.4646.6068l18.5354-14.1a3.1861,3.1861,0,0,0,.6069-4.4646L163.4553,48.9863a3.18,3.18,0,0,0-2.5381-1.2572Z"/><line class="cls-8" x1="172.3834" y1="94.473" x2="181.9888" y2="87.1663"/><rect class="cls-4" x="12.6406" y="38.3577" width="40.3789" height="39.219" transform="translate(-33.2357 49.4046) rotate(-53.0899)"/><path class="cls-5" d="M29.5745,32.1476l28.96,21.7518L36.0859,83.7867,7.126,62.0349,29.5745,32.1476m-.5972-4.2L2.9255,62.632,36.6829,87.9872l26.052-34.6848L28.9773,27.9471Z"/><polygon class="cls-1" points="47.947 92.248 49.079 93.049 70.037 65.147 68.928 64.314 47.947 92.248"/><path class="cls-4" d="M54.1915,98.8466l6.8076,5.5523c.9122,7.2472,2.8707,9.3957,9.3044,14.2282l34.9844,26.6243a4.1889,4.1889,0,0,0,5.8174-1.0351c2.0015-2.6648-.5863-4.824-1.125-5.2286a1.2206,1.2206,0,0,1-.24-.2413L96.6529,128.7423a2.0769,2.0769,0,0,1,2.5146-3.3054l28.9294,22.0644a4.3823,4.3823,0,0,0,5.2362-6.994l-26.14-19.9451a2.0639,2.0639,0,0,1-.395-2.8485,2.1241,2.1241,0,0,1,1.3952-.85,2.0033,2.0033,0,0,1,1.5172.3927l26.1292,19.9367c.0282.0212.0572.0479.0858.0717.0294.02.0567.0354.0772.0508l2.3328,1.7226a4.3894,4.3894,0,0,0,5.2692-6.989L114.1,109.9252a2.0789,2.0789,0,0,1,2.4934-3.3262l24.589,18.4393a1.4681,1.4681,0,0,1,.3438.1848,4.3355,4.3355,0,0,0,5.1954-6.917l-24.0365-18.3012c-.9057-2.4271-10.7941-8.1568-9.8816-9.3716s1.5137.0009,6.2807,3.4222c4.7661,3.4229,8.2187,3.9309,9.8128,1.8738,1.5958-2.0562.2444-5.56-.5464-6.6954-1.1024-1.5744-3.3748-3.4407-15.1257-10.8022l-.0167.0191c-.066-.0577-.14-.1035-.2072-.16-1.4127-.8823-2.7232-1.6795-3.9834-2.4352-7.35-3.2047-17.2344-1.8884-22.993.1837L85.02,76.401,70.0367,65.1467,49.0791,93.0492Z"/><polygon class="cls-6" points="47.947 92.248 68.928 64.314 70.037 65.147 72.414 61.982 68.138 58.77 42.333 93.126 46.7 96.216 49.079 93.049 47.947 92.248"/><path class="cls-7" d="M71.6068,124.849l31.1312,23.7354a8.3147,8.3147,0,0,0,11.585-1.9,7.7065,7.7065,0,0,0,1.4521-3.2929l9.7716,7.44a8.3413,8.3413,0,0,0,11.6157-1.9406,8.71,8.71,0,0,0,1.7686-5.1391,8.5947,8.5947,0,0,0,8.4955-3.31,8.3477,8.3477,0,0,0-1.3687-11.7053l.93.701a8.6231,8.6231,0,0,0,3.5874-2.7838,8.3109,8.3109,0,0,0-1.39-11.6505l-20.432-15.5622a8.3566,8.3566,0,0,0,2.3864-2.1794,7.5769,7.5769,0,0,0,1.3961-6.9841c-1.3349-3.6156-4.7818-7.6274-17.2816-15.4388-1.3374-.8363-2.5809-1.5952-3.7825-2.319l-.06.0793c-8.5786-4.1765-19.65-2.5687-25.7023-.6313L72.4138,61.9819l-2.3771,3.1648L85.02,76.401l1.0042-.3615c5.7586-2.0721,15.6428-3.3884,22.993-.1837,1.26.7557,2.5707,1.5529,3.9834,2.4352.0669.0563.1412.1021.2072.16l.0167-.0191c11.7509,7.3615,13.8292,10.3268,14.9316,11.9012.7908,1.1351,1.4016,2.4632-.1615,4.5443-.8584,1.1429-2.3527,1.9089-3.46,1.5011-2.5309-1.901-8.36-6.0578-11.04-8.07-2.6661-2.0026-4.5106,1.4062-2.375,3.01l35.6014,26.9877a4.3355,4.3355,0,0,1-5.1954,6.917,1.4681,1.4681,0,0,0-.3438-.1848l-24.589-18.4393a2.0789,2.0789,0,0,0-2.4934,3.3262l29.5044,22.124a4.3894,4.3894,0,0,1-5.2692,6.989l-2.3328-1.7226c-.02-.0154-.0478-.031-.0772-.0508-.0286-.0238-.0576-.05-.0858-.0717L109.71,117.2564a2.0033,2.0033,0,0,0-1.5172-.3927,2.1241,2.1241,0,0,0-1.3952.85,2.0639,2.0639,0,0,0,.395,2.8485l26.14,19.9451a4.3823,4.3823,0,0,1-5.2362,6.994L99.1675,125.4369a2.0769,2.0769,0,0,0-2.5146,3.3054L109.74,138.7464a1.2206,1.2206,0,0,0,.24.2413c.5387.4046,3.1265,2.5638,1.125,5.2286a4.1889,4.1889,0,0,1-5.8174,1.0351L74.1511,121.517a28.0007,28.0007,0,0,1-11.1193-18.9518l-2.3308-1.1231L49.0791,93.0492,46.7,96.2164l12.5665,9.0584A32.0443,32.0443,0,0,0,71.6068,124.849Z"/><path class="cls-4" d="M51.5688,104.05a1.6758,1.6758,0,0,1-1.0107-.3379L31.938,89.726a1.69,1.69,0,0,1-.3359-2.3614l28.5732-38.042a1.6874,1.6874,0,0,1,2.3613-.3349L81.1577,62.974a1.6884,1.6884,0,0,1,.335,2.3613l-28.5733,38.041A1.6773,1.6773,0,0,1,51.5688,104.05Z"/><path class="cls-5" d="M61.5264,50.15a.1718.1718,0,0,1,.1089.0373L80.2561,64.1733a.1864.1864,0,0,1,.0374.2607L51.72,102.4756a.1827.1827,0,0,1-.1511.0743.1722.1722,0,0,1-.1091-.0373L32.8389,88.5261a.1861.1861,0,0,1-.0371-.26L61.375,50.2241a.1829.1829,0,0,1,.1514-.0743m0-3a3.1811,3.1811,0,0,0-2.55,1.2727L30.4031,86.4641a3.1859,3.1859,0,0,0,.634,4.4608l18.6211,13.9864a3.1857,3.1857,0,0,0,4.4607-.6341L82.6921,66.2356a3.1862,3.1862,0,0,0-.634-4.4608L63.437,47.7885a3.1712,3.1712,0,0,0-1.9109-.6387Z"/><line class="cls-8" x1="71.7293" y1="65.4666" x2="62.0795" y2="58.2186"/></g><circle class="cls-1" cx="111.9999" cy="111.9999" r="98"/><path class="cls-5" d="M189.7817,34.2183a110.7859,110.7859,0,0,0-20.3881-16.0938,6.4971,6.4971,0,0,0-11.4087-6.1051,110.2379,110.2379,0,1,0,31.7968,22.1989ZM163.4041,11.1a4.5,4.5,0,1,1-4.5,4.5A4.505,4.505,0,0,1,163.4041,11.1Zm24.9633,177.2673A108,108,0,1,1,35.6326,35.6324a108.18,108.18,0,0,1,121.52-21.793,6.4912,6.4912,0,0,0,11.1831,5.9832,108.7778,108.7778,0,0,1,20.0315,15.81,108,108,0,0,1,0,152.7352Z"/></svg>