<?xml version="1.0" encoding="utf-8"?>
<!-- Generator: Adobe Illustrator 24.0.3, SVG Export Plug-In . SVG Version: 6.00 Build 0)  -->
<svg version="1.1" id="Layer_1" xmlns="http://www.w3.org/2000/svg" xmlns:xlink="http://www.w3.org/1999/xlink" x="0px" y="0px"
	 viewBox="0 0 227.3 155.6" style="enable-background:new 0 0 227.3 155.6;" xml:space="preserve">
<style type="text/css">
	.st0{fill:none;stroke:#090A0A;stroke-width:4;stroke-miterlimit:10;}
	.st1{fill:none;stroke:url(#SVGID_1_);stroke-width:8;stroke-miterlimit:10;}
	.st2{fill:url(#SVGID_2_);}
	.st3{fill:#D3D3D0;}
	.st4{fill:#FFFFFF;}
</style>
<g>
	<path class="st0" d="M53.8,33.9"/>
	
		<linearGradient id="SVGID_1_" gradientUnits="userSpaceOnUse" x1="77.2" y1="117.7" x2="151.6" y2="117.7" gradientTransform="matrix(1 0 0 -1 0 158)">
		<stop  offset="0" style="stop-color:#FAC853"/>
		<stop  offset="0.474" style="stop-color:#FFEDDF"/>
		<stop  offset="1" style="stop-color:#F6BE1E"/>
	</linearGradient>
	<path class="st1" d="M147.6,71H81.2V42.8c0-18.3,14.9-33.2,33.2-33.2l0,0c18.3,0,33.2,14.9,33.2,33.2L147.6,71L147.6,71z"/>
	
		<linearGradient id="SVGID_2_" gradientUnits="userSpaceOnUse" x1="55.3" y1="55.7" x2="173.4007" y2="55.7" gradientTransform="matrix(1 0 0 -1 0 158)">
		<stop  offset="0" style="stop-color:#FAC853"/>
		<stop  offset="0.474" style="stop-color:#FFEDDF"/>
		<stop  offset="1" style="stop-color:#F6BE1E"/>
	</linearGradient>
	<path class="st2" d="M150.5,146H78.3c-12.7,0-23-10.3-23-23V81.6c0-12.7,10.3-23,23-23h72.1c12.7,0,23,10.3,23,23v41.3
		C173.5,135.7,163.2,146,150.5,146z"/>
	<g>
		<path class="st3" d="M124.7,98.5L124.7,98.5c-4.8,3.7-9.9,3.9-13.8,2c-6.4-3-9.6-11.6-3.6-19.4C120,71.4,134.4,85.8,124.7,98.5z"
			/>
		<polygon class="st3" points="116.2,79 106.9,126.1 124.7,126.1 		"/>
	</g>
	<g>
		<path class="st4" d="M121.5,99.1L121.5,99.1c-4.8,3.7-9.9,3.9-13.8,2c-6.4-3-9.6-11.6-3.6-19.4C116.8,72,131.2,86.3,121.5,99.1z"
			/>
		<polygon class="st4" points="113,79.5 103.7,126.6 121.5,126.6 		"/>
	</g>
</g>
</svg>
