<?xml version="1.0" encoding="utf-8"?>
<!-- Generator: Adobe Illustrator 24.0.3, SVG Export Plug-In . SVG Version: 6.00 Build 0)  -->
<svg version="1.1" id="Layer_1" xmlns="http://www.w3.org/2000/svg" xmlns:xlink="http://www.w3.org/1999/xlink" x="0px" y="0px"
	 viewBox="0 0 255.97 242.73" style="enable-background:new 0 0 255.97 242.73;" xml:space="preserve">
<style type="text/css">
	.st0{fill:#F1DB95;}
	.st1{fill:none;stroke:#090909;stroke-width:4;stroke-miterlimit:10;}
	.st2{fill:none;stroke:#F1DB95;stroke-width:13;stroke-miterlimit:10;}
	.st3{fill:#FFFFFF;}
</style>
<path class="st0" d="M175.55,209.25H72.83c-8.8,0-15.94-7.14-15.94-15.94v-67.58c0-8.8,7.14-15.94,15.94-15.94h102.72
	c8.8,0,15.94,7.14,15.94,15.94v67.58C191.49,202.11,184.35,209.25,175.55,209.25z"/>
<path class="st1" d="M80.14,92.78"/>
<path class="st2" d="M167.73,123.89H80.14V86.77c0-24.19,19.61-43.79,43.79-43.79l0,0c24.19,0,43.79,19.61,43.79,43.79
	L167.73,123.89L167.73,123.89z"/>
<g>
	<path class="st3" d="M133.96,155.32L133.96,155.32c-5.63,4.29-11.55,4.53-16.1,2.37c-7.42-3.53-11.21-13.47-4.2-22.67
		C128.49,123.72,145.26,140.49,133.96,155.32z"/>
	<polygon class="st3" points="124.06,132.55 113.17,187.48 133.96,187.48 	"/>
</g>
</svg>
