<svg id="Layer_1" data-name="Layer 1" xmlns="http://www.w3.org/2000/svg" viewBox="0 0 224 224"><defs><style>.cls-1,.cls-3,.cls-8{fill:#fff;}.cls-2,.cls-4{fill:#9bdaf1;}.cls-3,.cls-4,.cls-5,.cls-6{stroke:#9bdaf1;}.cls-10,.cls-11,.cls-13,.cls-3,.cls-4,.cls-5,.cls-6,.cls-8,.cls-9{stroke-miterlimit:10;}.cls-12,.cls-13,.cls-3,.cls-8{stroke-width:3px;}.cls-4,.cls-9{stroke-width:2.5px;}.cls-10,.cls-11,.cls-12,.cls-13,.cls-5,.cls-6{fill:none;}.cls-10,.cls-5{stroke-width:2px;}.cls-11,.cls-6{stroke-width:1.5px;}.cls-7,.cls-9{fill:#f9c642;}.cls-10,.cls-11,.cls-12,.cls-13,.cls-8,.cls-9{stroke:#f9c642;}.cls-12{stroke-linecap:round;stroke-linejoin:round;}</style></defs><title>Provider – medications</title><circle class="cls-1" cx="112" cy="112.1961" r="98"/><path class="cls-2" d="M190.4888,33.7073a111.7694,111.7694,0,0,0-20.76-16.3541,6.49,6.49,0,0,0-11.3218-6.0439,111.2363,111.2363,0,1,0,32.0818,22.398ZM163.6045,10.6961a4.5,4.5,0,1,1-4.5,4.5A4.5049,4.5049,0,0,1,163.6045,10.6961Zm25.47,178.5746A109,109,0,0,1,34.9253,35.1214,109.177,109.177,0,0,1,157.4653,13.08a6.49,6.49,0,0,0,11.3125,6.0353,109.7692,109.7692,0,0,1,20.2969,16.0064,109,109,0,0,1,0,154.1493Z"/><path class="cls-2" d="M71.6,98.9272v52.8465c-.9575,1.1177-6.1326,3.5436-14.4263,3.5436s-13.469-2.4259-14.4265-3.5436V98.9272H71.6m3-3H39.7468V152.11h.0013c.0134,2.981,7.809,6.2071,17.4252,6.2071s17.4117-3.2261,17.4251-6.2071H74.6V95.9272Z"/><path class="cls-2" d="M42.9522,121.5182a42.3414,42.3414,0,0,0,12.5063,2.2557v7.9442l0,9.8985c-7.7932-.2746-11.1108-1.6092-12.507-2.5871l0-17.5113m-3-4.6756c0,3.0937,0,23.5,0,23.5,3.0683,3.61,11.5244,4.3243,18.507,4.3243,0-6.9374,0-18.0528,0-23.8277-6.3638,0-13.0132-.8249-18.5063-3.9969Z"/><path class="cls-3" d="M74.586,106.0776c0,2.9846-7.8021,5.4042-17.4264,5.4042s-17.4265-2.42-17.4265-5.4042l.0319-10.0413,34.81-.291S74.586,105.276,74.586,106.0776Z"/><ellipse class="cls-4" cx="57.1868" cy="93.9224" rx="17.5634" ry="5.6203"/><line class="cls-5" x1="46.7379" y1="96.0516" x2="46.7379" y2="109.4807"/><line class="cls-6" x1="52.2419" y1="97.3582" x2="52.2419" y2="110.6127"/><path class="cls-7" d="M126.4126,98.9272V151.774c-.958,1.1178-6.1331,3.5433-14.4263,3.5433-8.2912,0-13.4658-2.4244-14.4262-3.5428V98.9272h28.8525m3-3H94.56v56.1744l0,.001,0,.001v.0066h.0009c.0137,2.981,7.8094,6.2071,17.4253,6.2071s17.4119-3.2261,17.4253-6.2071h.001v-.0066l0-.001,0-.001V95.9272Z"/><path class="cls-7" d="M97.7654,121.5182a42.3414,42.3414,0,0,0,12.5063,2.2557v7.9442l0,9.8985c-7.7932-.2746-11.1109-1.6092-12.5071-2.5871l.0005-17.5113m-3-4.6756c0,3.0937-.0005,23.5-.0005,23.5,3.0684,3.61,11.5244,4.3243,18.5071,4.3243,0-6.9374,0-18.0528,0-23.8277-6.3637,0-13.0132-.8249-18.5063-3.9969Z"/><path class="cls-8" d="M129.3992,106.0776c0,2.9846-7.8021,5.4042-17.4264,5.4042s-17.4265-2.42-17.4265-5.4042l.0319-10.0413,34.81-.291S129.3992,105.276,129.3992,106.0776Z"/><ellipse class="cls-9" cx="112" cy="93.9224" rx="17.5634" ry="5.6203"/><line class="cls-10" x1="101.5511" y1="96.0516" x2="101.5511" y2="109.4807"/><line class="cls-11" x1="107.0551" y1="97.3582" x2="107.0551" y2="110.6127"/><path class="cls-2" d="M181.2258,98.9272v52.8467c-.958,1.1178-6.1328,3.5434-14.4262,3.5434-8.2913,0-13.4659-2.4244-14.4263-3.5428V98.9272h28.8525m3-3H149.3733v56.1744l0,.001,0,.001v.0066h.001c.0136,2.981,7.8093,6.2071,17.4253,6.2071s17.4116-3.2261,17.4253-6.2071h.0009v-.0066l0-.001,0-.001V95.9272Z"/><path class="cls-2" d="M152.5786,121.5182a42.3415,42.3415,0,0,0,12.5064,2.2557v7.9442l0,9.8985c-7.7932-.2746-11.1108-1.6092-12.5071-2.5871l0-17.5113m-3-4.6756c0,3.0937,0,23.5,0,23.5,3.0684,3.61,11.5244,4.3243,18.5071,4.3243,0-6.9374,0-18.0528,0-23.8277-6.3638,0-13.0132-.8249-18.5064-3.9969Z"/><path class="cls-3" d="M184.2124,106.0776c0,2.9846-7.8021,5.4042-17.4264,5.4042s-17.4265-2.42-17.4265-5.4042l.0319-10.0413,34.81-.291S184.2124,105.276,184.2124,106.0776Z"/><ellipse class="cls-4" cx="166.8132" cy="93.9224" rx="17.5634" ry="5.6203"/><line class="cls-5" x1="156.3643" y1="96.0516" x2="156.3643" y2="109.4807"/><line class="cls-6" x1="161.8683" y1="97.3582" x2="161.8683" y2="110.6127"/><line class="cls-12" x1="106.0694" y1="51.9024" x2="117.9306" y2="63.7637"/><line class="cls-12" x1="117.9306" y1="51.9024" x2="106.0694" y2="63.7637"/><circle class="cls-13" cx="112" cy="57.833" r="16.4434"/></svg>