<svg id="Layer_1" data-name="Layer 1" xmlns="http://www.w3.org/2000/svg" viewBox="0 0 224 224"><defs><style>.cls-1{fill:#fff;}.cls-2{fill:#9bdaf1;}.cls-3{fill:#f9c642;}.cls-4{fill:none;stroke:#9bdaf1;stroke-miterlimit:10;stroke-width:4px;}</style></defs><title>Provider – calendar</title><circle class="cls-1" cx="112.2922" cy="112.1961" r="98"/><path class="cls-2" d="M190.7811,33.7073A111.0867,111.0867,0,0,0,12.8153,62.8758a6.4967,6.4967,0,0,0-5.0648,11.912A111.0184,111.0184,0,1,0,190.7811,33.7073ZM6.3068,69.0545a4.5,4.5,0,1,1,4.5,4.5A4.5049,4.5049,0,0,1,6.3068,69.0545Zm183.06,120.2162A109.0368,109.0368,0,0,1,9.641,75.444a6.4907,6.4907,0,0,0,4.9564-11.6589,109.0152,109.0152,0,1,1,174.77,125.4856Z"/><rect class="cls-2" x="88.476" y="98.5036" width="6.7813" height="6.7813" rx="1.6711"/><rect class="cls-3" x="102.0386" y="98.5036" width="6.7813" height="6.7813" rx="1.6711"/><rect class="cls-2" x="115.6013" y="98.5036" width="6.7813" height="6.7813" rx="1.6711"/><rect class="cls-2" x="129.1639" y="98.5036" width="6.7813" height="6.7813" rx="1.6711"/><rect class="cls-2" x="142.7265" y="98.5036" width="6.7813" height="6.7813" rx="1.6711"/><rect class="cls-2" x="88.476" y="112.0662" width="6.7813" height="6.7813" rx="1.6711"/><rect class="cls-2" x="74.9134" y="112.0662" width="6.7813" height="6.7813" rx="1.6711"/><rect class="cls-2" x="102.0386" y="112.0662" width="6.7813" height="6.7813" rx="1.6711"/><rect class="cls-2" x="115.6013" y="112.0662" width="6.7813" height="6.7813" rx="1.6711"/><rect class="cls-2" x="129.1639" y="112.0662" width="6.7813" height="6.7813" rx="1.6711"/><rect class="cls-2" x="142.7265" y="112.0662" width="6.7813" height="6.7813" rx="1.6711"/><rect class="cls-2" x="88.476" y="125.6288" width="6.7813" height="6.7813" rx="1.6711"/><rect class="cls-2" x="74.9134" y="125.6288" width="6.7813" height="6.7813" rx="1.6711"/><rect class="cls-2" x="102.0386" y="125.6288" width="6.7813" height="6.7813" rx="1.6711"/><rect class="cls-2" x="115.6013" y="125.6288" width="6.7813" height="6.7813" rx="1.6711"/><rect class="cls-3" x="129.1639" y="125.6288" width="6.7813" height="6.7813" rx="1.6711"/><rect class="cls-2" x="142.7265" y="125.6288" width="6.7813" height="6.7813" rx="1.6711"/><rect class="cls-2" x="88.476" y="139.1914" width="6.7813" height="6.7813" rx="1.6711"/><rect class="cls-3" x="74.9134" y="139.1914" width="6.7813" height="6.7813" rx="1.6711"/><rect class="cls-2" x="102.0386" y="139.1914" width="6.7813" height="6.7813" rx="1.6711"/><rect class="cls-2" x="115.6013" y="139.1914" width="6.7813" height="6.7813" rx="1.6711"/><rect class="cls-2" x="129.1639" y="139.1914" width="6.7813" height="6.7813" rx="1.6711"/><rect class="cls-4" x="60.9014" y="64.8646" width="102" height="95.1081" rx="8.1376"/><line class="cls-4" x1="60.9014" y1="85.33" x2="162.9014" y2="85.33"/><path class="cls-3" d="M81.9208,74.0908a3.1658,3.1658,0,0,1-3.1647-3.1646V58.2678a3.1647,3.1647,0,0,1,6.3293,0V70.9262A3.1658,3.1658,0,0,1,81.9208,74.0908Z"/><path class="cls-3" d="M142.5005,74.0908a3.1637,3.1637,0,0,1-3.1647-3.1646V58.2678a3.1647,3.1647,0,0,1,6.3293,0V70.9262A3.1637,3.1637,0,0,1,142.5005,74.0908Z"/></svg>