<?xml version="1.0" encoding="utf-8"?>
<!-- Generator: Adobe Illustrator 24.0.3, SVG Export Plug-In . SVG Version: 6.00 Build 0)  -->
<svg version="1.1" id="Layer_1" xmlns="http://www.w3.org/2000/svg" xmlns:xlink="http://www.w3.org/1999/xlink" x="0px" y="0px"
	 viewBox="0 0 255.97 242.73" style="enable-background:new 0 0 255.97 242.73;" xml:space="preserve">
<style type="text/css">
	.st0{fill:none;stroke:#F1DB95;stroke-width:13;stroke-miterlimit:10;}
	.st1{fill:#F1DB95;}
	.st2{fill:none;stroke:#090909;stroke-width:4;stroke-miterlimit:10;}
	.st3{fill:#FFFFFF;}
	.st4{fill:none;stroke:#070707;stroke-width:4;stroke-miterlimit:10;}
</style>
<path class="st0" d="M492.02,304.76h-87.59v-37.11c0-24.19,19.61-43.79,43.79-43.79l0,0c24.19,0,43.79,19.61,43.79,43.79
	L492.02,304.76L492.02,304.76z"/>
<path class="st1" d="M412.58,392.7H309.86c-8.8,0-15.94-7.14-15.94-15.94v-67.58c0-8.8,7.14-15.94,15.94-15.94h102.72
	c8.8,0,15.94,7.14,15.94,15.94v67.58C428.52,385.56,421.39,392.7,412.58,392.7z"/>
<path class="st2" d="M317.18,293.23"/>
<g>
	<path class="st3" d="M371,338.76L371,338.76c-5.63,4.29-11.55,4.53-16.1,2.37c-7.42-3.53-11.21-13.47-4.2-22.67
		C365.53,307.17,382.3,323.93,371,338.76z"/>
	<polygon class="st3" points="361.1,315.99 350.21,370.92 370.99,370.92 	"/>
</g>
<path class="st0" d="M231.3,111.4h-87.59V74.28c0-24.19,19.61-43.79,43.79-43.79l0,0c24.19,0,43.79,19.61,43.79,43.79L231.3,111.4
	L231.3,111.4z"/>
<path class="st3" d="M223.83,199.82H121.11c-8.8,0-15.94-7.14-15.94-15.94v-67.58c0-8.8,7.14-15.94,15.94-15.94h118.66v83.52
	C239.77,192.68,232.63,199.82,223.83,199.82z"/>
<path class="st1" d="M151.86,199.33H49.14c-8.8,0-15.94-7.14-15.94-15.94V115.8c0-8.8,7.14-15.94,15.94-15.94h102.72
	c8.8,0,15.94,7.14,15.94,15.94v67.58C167.8,192.19,160.67,199.33,151.86,199.33z"/>
<path class="st4" d="M56.46,99.86"/>
<g>
	<path class="st3" d="M110.28,145.39L110.28,145.39c-5.63,4.29-11.55,4.53-16.1,2.37c-7.42-3.53-11.21-13.47-4.2-22.67
		C104.81,113.8,121.58,130.56,110.28,145.39z"/>
	<polygon class="st3" points="100.38,122.62 89.49,177.55 110.27,177.55 	"/>
</g>
</svg>
