<?xml version="1.0" encoding="utf-8"?>
<!-- Generator: Adobe Illustrator 24.0.3, SVG Export Plug-In . SVG Version: 6.00 Build 0)  -->
<svg version="1.1" id="Layer_1" xmlns="http://www.w3.org/2000/svg" xmlns:xlink="http://www.w3.org/1999/xlink" x="0px" y="0px"
	 viewBox="0 0 227.3 155.6" style="enable-background:new 0 0 227.3 155.6;" xml:space="preserve">
<style type="text/css">
	.st0{opacity:0.75;}
	.st1{fill:#F1A221;}
	.st2{fill:#FCBE3A;}
	.st3{fill:#FFFFFF;}
</style>
<g class="st0">
	<path class="st1" d="M58.4,122.2c-31.6,0-41.4-26.5-41.4-47c0-1.2,51.4,23.6,51.5,22.4"/>
	<path class="st1" d="M65.8,86.6c0.1,1.3,34.1-12.6,34.1-11.4c0,20.6-11.1,47-41.4,47"/>
	<polyline class="st1" points="210.3,81.5 186.1,100.3 171.8,100.3 161.9,89.5 151.6,100.3 144.7,100.3 139.4,93.4 132.4,100.3 
		109,100.3 109,72.6 189.6,72.6 189.6,94.6 210.3,81.5 	"/>
	<path class="st2" d="M58.9,33.3c14,0,26.3,6.8,33.9,17.4H109v8.8h80.6v35.1h-16.1l-11.2-12.3l-12.8,12.3H145l-5.4-5.4l-6.5,5.4H109
		v6.3H91.8c-7.7,9.8-19.6,16-32.9,16"/>
	<path class="st2" d="M58.9,116.9c-23.1,0-41.8-18.7-41.8-41.8s18.7-41.8,41.8-41.8"/>
	<rect x="88.6" y="101" class="st1" width="20.4" height="5.8"/>
	<polyline class="st2" points="210.3,81.5 189.6,94.6 189.6,59.5 210.3,81.5 	"/>
	<circle class="st3" cx="42.2" cy="74.6" r="14.3"/>
	<path class="st1" d="M56.5,74.9c0,0-3.7-10.5-15.2-9.7c-10.1,0.7-13.4,9.7-13.4,9.7s-0.4-15.6,14.3-15.6
		C56.9,59.3,56.5,74.9,56.5,74.9z"/>
</g>
</svg>
