<?xml version="1.0" encoding="utf-8"?>
<!-- Generator: Adobe Illustrator 24.0.3, SVG Export Plug-In . SVG Version: 6.00 Build 0)  -->
<svg version="1.1" id="Layer_1" xmlns="http://www.w3.org/2000/svg" xmlns:xlink="http://www.w3.org/1999/xlink" x="0px" y="0px"
	 viewBox="0 0 227.3 155.6" style="enable-background:new 0 0 227.3 155.6;" xml:space="preserve">
<style type="text/css">
	.st0{fill:none;stroke:#090A0A;stroke-width:4;stroke-miterlimit:10;}
	.st1{fill:none;stroke:url(#SVGID_1_);stroke-width:8;stroke-miterlimit:10;}
	.st2{fill:url(#SVGID_2_);}
	.st3{fill:#D3D3D0;}
	.st4{fill:#FFFFFF;}
	.st5{opacity:0.75;}
	.st6{fill:#F1A221;}
	.st7{fill:#FCBE3A;}
	.st8{fill:none;stroke:#505250;stroke-width:2;stroke-miterlimit:10;}
	.st9{fill:#73B772;}
	.st10{fill:none;stroke:#F1DB95;stroke-width:3;stroke-miterlimit:10;}
	.st11{opacity:0.3;}
	.st12{fill:url(#SVGID_3_);stroke:#A7ACB0;stroke-miterlimit:10;}
	.st13{fill:url(#SVGID_4_);stroke:#CDAB2C;stroke-miterlimit:10;}
	.st14{fill:url(#SVGID_5_);stroke:#4C4E4F;stroke-miterlimit:10;}
	.st15{fill:url(#SVGID_6_);stroke:#4C4E4F;stroke-miterlimit:10;}
	.st16{fill:#4C4E4F;}
	.st17{fill:none;stroke:#515250;stroke-width:0.5;stroke-miterlimit:10;}
	.st18{fill:#72B672;}
</style>
<g>
	<path class="st0" d="M358.1,45.9"/>
	<linearGradient id="SVGID_1_" gradientUnits="userSpaceOnUse" x1="381.4361" y1="52.3416" x2="455.8184" y2="52.3416">
		<stop  offset="0" style="stop-color:#FAC853"/>
		<stop  offset="0.474" style="stop-color:#FFEDDF"/>
		<stop  offset="1" style="stop-color:#F6BE1E"/>
	</linearGradient>
	<path class="st1" d="M451.8,83h-66.4V54.8c0-18.3,14.9-33.2,33.2-33.2h0c18.3,0,33.2,14.9,33.2,33.2V83z"/>
	<linearGradient id="SVGID_2_" gradientUnits="userSpaceOnUse" x1="359.5211" y1="114.3408" x2="477.7334" y2="114.3408">
		<stop  offset="0" style="stop-color:#FAC853"/>
		<stop  offset="0.474" style="stop-color:#FFEDDF"/>
		<stop  offset="1" style="stop-color:#F6BE1E"/>
	</linearGradient>
	<path class="st2" d="M454.7,158h-72.1c-12.7,0-23-10.3-23-23V93.7c0-12.7,10.3-23,23-23h72.1c12.7,0,23,10.3,23,23V135
		C477.7,147.7,467.4,158,454.7,158z"/>
	<g>
		<path class="st3" d="M428.9,110.6C428.9,110.6,428.9,110.6,428.9,110.6c-4.8,3.7-9.9,3.9-13.8,2c-6.4-3-9.6-11.6-3.6-19.4
			C424.2,83.5,438.6,97.9,428.9,110.6z"/>
		<polygon class="st3" points="420.4,91.1 411.1,138.2 428.9,138.2 		"/>
	</g>
	<g>
		<path class="st4" d="M425.7,111.1C425.7,111.1,425.7,111.1,425.7,111.1c-4.8,3.7-9.9,3.9-13.8,2c-6.4-3-9.6-11.6-3.6-19.4
			C421.1,84,435.4,98.4,425.7,111.1z"/>
		<polygon class="st4" points="417.2,91.6 407.9,138.7 425.7,138.7 		"/>
	</g>
</g>
<g class="st5">
	<path class="st6" d="M316.1,300.6c-31.6,0-41.4-26.5-41.4-47c0-1.2,51.4,23.6,51.5,22.4"/>
	<path class="st6" d="M323.4,264.9c0.1,1.3,34.1-12.6,34.1-11.4c0,20.6-11.1,47-41.4,47"/>
	<polyline class="st6" points="467.9,259.8 443.8,278.6 429.5,278.6 419.5,267.8 409.2,278.6 402.4,278.6 397,271.7 390.1,278.6 
		366.7,278.6 366.7,250.9 447.2,250.9 447.2,272.9 467.9,259.8 	"/>
	<path class="st7" d="M316.5,211.6c14,0,26.3,6.8,33.9,17.4h16.2v8.8h80.6v35.1h-16.1L420,260.6l-12.8,12.3h-4.5l-5.4-5.4l-6.5,5.4
		h-24.1v6.3h-17.2c-7.7,9.8-19.6,16-32.9,16"/>
	<path class="st7" d="M316.5,295.2c-23.1,0-41.8-18.7-41.8-41.8c0-23.1,18.7-41.8,41.8-41.8"/>
	<rect x="346.2" y="279.3" class="st6" width="20.4" height="5.8"/>
	<polyline class="st7" points="467.9,259.8 447.2,272.9 447.2,237.8 467.9,259.8 	"/>
	<circle class="st4" cx="299.9" cy="252.9" r="14.3"/>
	<path class="st6" d="M314.2,253.2c0,0-3.7-10.5-15.2-9.7c-10.1,0.7-13.4,9.7-13.4,9.7s-0.4-15.6,14.3-15.6
		C314.6,237.6,314.2,253.2,314.2,253.2z"/>
</g>
<g>
	<rect x="396.4" y="-71.5" class="st8" width="21.9" height="20.4"/>
	<polygon class="st9" points="398.2,-71.4 402.2,-80 406.8,-71.4 431.5,-112.8 407.1,-55.2 	"/>
	<line class="st10" x1="225.8" y1="-45.3" x2="447.8" y2="-45.3"/>
	<g class="st11">
		<path class="st6" d="M254.9-91.4c-18.8,0-24.7-15.8-24.7-28.1c0-0.7,30.6,14,30.7,13.3"/>
		<path class="st6" d="M259.3-112.7c0.1,0.7,20.3-7.5,20.3-6.8c0,12.3-6.6,28.1-24.7,28.1"/>
		<polyline class="st6" points="345.5,-115.7 331.1,-104.5 322.6,-104.5 316.6,-111 310.5,-104.5 306.4,-104.5 303.2,-108.6 
			299,-104.5 285.1,-104.5 285.1,-121 333.2,-121 333.2,-107.9 345.5,-115.7 		"/>
		<path class="st7" d="M255.2-144.4c8.3,0,15.7,4.1,20.2,10.4h9.7v5.3h48.1v20.9h-9.6l-6.7-7.3l-7.6,7.3h-2.7l-3.2-3.2l-3.9,3.2
			h-14.4v3.7h-10.3c-4.6,5.8-11.7,9.6-19.6,9.6"/>
		<path class="st7" d="M255.2-94.6c-13.8,0-24.9-11.2-24.9-24.9c0-13.8,11.2-24.9,24.9-24.9"/>
		<rect x="272.9" y="-104.1" class="st6" width="12.2" height="3.5"/>
		<polyline class="st7" points="345.5,-115.7 333.2,-107.9 333.2,-128.8 345.5,-115.7 		"/>
		<circle class="st4" cx="245.3" cy="-119.8" r="8.5"/>
		<path class="st6" d="M253.8-119.6c0,0-2.2-6.3-9.1-5.8c-6,0.4-8,5.8-8,5.8s-0.3-9.3,8.5-9.3C254-128.9,253.8-119.6,253.8-119.6z"
			/>
	</g>
	<g>
		<g>
			<linearGradient id="SVGID_3_" gradientUnits="userSpaceOnUse" x1="346.6967" y1="-73.6358" x2="359.5412" y2="-60.7913">
				<stop  offset="2.144410e-02" style="stop-color:#FCF7EE"/>
				<stop  offset="0.1096" style="stop-color:#DCD8D2"/>
				<stop  offset="0.2333" style="stop-color:#BDBAB7"/>
				<stop  offset="0.3506" style="stop-color:#A7A6A4"/>
				<stop  offset="0.4576" style="stop-color:#9B9A9A"/>
				<stop  offset="0.5449" style="stop-color:#979797"/>
				<stop  offset="0.6289" style="stop-color:#9B9B9B"/>
				<stop  offset="0.7202" style="stop-color:#A8A8A8"/>
				<stop  offset="0.8149" style="stop-color:#BEBEBE"/>
				<stop  offset="0.9112" style="stop-color:#DCDCDC"/>
				<stop  offset="1" style="stop-color:#FFFFFF"/>
			</linearGradient>
			<path class="st12" d="M352.1-76.8c-1.2,2.5-3.6,7.9-4.5,11c-0.8,2.7-2.6,13.2-2.6,13.2s13.4-8.3,16.2-10.3
				c3.8-2.6,9.2-9.5,9.2-9.5l-1.4-1.8l-13.1-8.6C355.8-82.8,352.8-78.5,352.1-76.8z"/>
			<linearGradient id="SVGID_4_" gradientUnits="userSpaceOnUse" x1="357.9548" y1="-87.1045" x2="371.5548" y2="-73.5044">
				<stop  offset="2.144410e-02" style="stop-color:#FCF7EE"/>
				<stop  offset="9.715766e-02" style="stop-color:#F0DFB8"/>
				<stop  offset="0.1729" style="stop-color:#E8CD8D"/>
				<stop  offset="0.2468" style="stop-color:#E0BF6B"/>
				<stop  offset="0.3174" style="stop-color:#DBB44D"/>
				<stop  offset="0.3837" style="stop-color:#D7AD38"/>
				<stop  offset="0.4443" style="stop-color:#D5A92D"/>
				<stop  offset="0.4936" style="stop-color:#D4A72A"/>
				<stop  offset="0.5574" style="stop-color:#D5A92E"/>
				<stop  offset="0.6266" style="stop-color:#D8AE3B"/>
				<stop  offset="0.6985" style="stop-color:#DCB751"/>
				<stop  offset="0.7722" style="stop-color:#E2C470"/>
				<stop  offset="0.8473" style="stop-color:#EAD497"/>
				<stop  offset="0.9235" style="stop-color:#F4E8C7"/>
				<stop  offset="1" style="stop-color:#FFFFFF"/>
			</linearGradient>
			<polygon class="st13" points="367.3,-96.5 379.2,-87 370.4,-72.3 355.7,-68.2 355.7,-82.4 			"/>
		</g>
		<linearGradient id="SVGID_5_" gradientUnits="userSpaceOnUse" x1="380.2305" y1="-128.8613" x2="403.8596" y2="-109.0341">
			<stop  offset="0" style="stop-color:#252525"/>
			<stop  offset="0.4853" style="stop-color:#9A9797"/>
			<stop  offset="1" style="stop-color:#090909"/>
		</linearGradient>
		<path class="st14" d="M362.9-100.1l20.1,16c0,0,5.6-14.4,12.8-23c6.6-7.9,16.1-12.6,16.1-12.6l11.7-16.1l-23.8-16.4l-10.6,14.9
			c0,0-0.7,9.6-8.8,20.3C373.6-107.8,362.9-100.1,362.9-100.1z"/>
		<linearGradient id="SVGID_6_" gradientUnits="userSpaceOnUse" x1="407.5164" y1="-167.5726" x2="435.6728" y2="-143.9466">
			<stop  offset="0" style="stop-color:#252525"/>
			<stop  offset="0.4853" style="stop-color:#9A9797"/>
			<stop  offset="1" style="stop-color:#090909"/>
		</linearGradient>
		<polyline class="st15" points="431.6,-172.9 412,-172.9 396.4,-151.3 424.5,-131.4 431.6,-139.1 		"/>
	</g>
	<g>
		<g>
			<path class="st16" d="M284.4-50.6c4-3.1,8.1-6,11.8-9.5c2.8-2.7,5.5-6.2,5.8-10.2c0.2-3-1.7-7-5.3-6c-4.8,1.3-4,7.4-3.5,11.1
				c0.8,6.1,1.8,12.2,3,18.3c0.1,0.4,0.7,0.3,0.7-0.1c0-2.9,1.2-5.7,3.3-7.7c-0.2-0.1-0.4-0.1-0.6-0.2c0.5,2.2,1.2,4.9,3.7,5.6
				c2.4,0.6,3.5-1.4,4.3-3.3c2.2-5.7,2.1-12.1-0.2-17.8c-0.1-0.3-0.6-0.4-0.7,0c-1,3.9-1.5,7.8-1.4,11.8c0,1.9,0.2,3.9,0.5,5.8
				c0.2,1.1,0.5,2.4,1.4,3.2c2.2,2,4.8-0.6,5.8-2.5c1.7-3.1,2.4-6.6,2.1-10c-0.2,0-0.5,0.1-0.7,0.1c1.8,7.6,1.8,15.5,0.1,23.2
				c0.2-0.1,0.4-0.1,0.6-0.2c-5.5-3.4-6.4-11.3-1.4-15.6c3.1-2.7,9.2-3.3,10-8c0.1-0.3-0.2-0.5-0.5-0.5c-1.6,0.3-2.5,1.7-2.7,3.2
				c-0.2,1.7,0.8,3.3,2.3,4c4.3,2,7.8-2,9-5.7c-0.2-0.1-0.5-0.1-0.7-0.2c-0.5,1.8-0.7,3.7-0.4,5.6c0.2,1.4,0.6,3.1,1.9,4
				c2.5,1.8,5.7-0.7,7.5-2.4c0.3-0.3-0.2-0.9-0.5-0.5c-1.6,1.5-4.9,4.2-7,1.9c-1.8-2-1.5-5.9-0.8-8.3c0.1-0.5-0.6-0.7-0.7-0.2
				c-1,3-3.4,6.3-7.1,5.6c-1.5-0.3-2.8-1.4-2.8-3c-0.1-1.4,0.7-2.8,2.2-3.1c-0.2-0.2-0.3-0.3-0.5-0.5c-0.5,2.8-3.3,4-5.6,5.2
				c-2.4,1.2-4.7,2.5-6.2,4.8c-3.1,4.9-1.4,11.4,3.5,14.4c0.2,0.1,0.5,0,0.6-0.2c1.8-7.8,1.8-15.8-0.1-23.6
				c-0.1-0.4-0.8-0.3-0.7,0.1c0.2,2.9-0.2,5.8-1.4,8.5c-0.6,1.3-1.4,2.8-2.7,3.6c-1.7,1-3-0.2-3.4-1.9c-0.8-2.8-0.7-6-0.6-8.8
				c0.1-3.2,0.6-6.4,1.4-9.5c-0.2,0-0.5,0-0.7,0c1.8,4.5,2.2,9.4,1.2,14c-0.4,1.8-1.1,5.7-3.3,6.1c-2.9,0.6-3.8-3-4.3-5.1
				c-0.1-0.3-0.4-0.4-0.6-0.2c-2.2,2.2-3.5,5.1-3.5,8.3c0.2,0,0.5-0.1,0.7-0.1c-0.9-4.4-1.6-8.9-2.3-13.4c-0.4-2.4-0.7-4.8-1-7.3
				c-0.2-2.2-0.3-4.7,1.3-6.5c1.5-1.7,4-1.9,5.4,0.1c1,1.5,1.1,3.4,0.8,5c-0.8,3.8-3.4,6.8-6.1,9.3c-3.5,3.2-7.4,5.9-11.1,8.8
				C283.5-50.8,284-50.3,284.4-50.6L284.4-50.6z"/>
		</g>
	</g>
</g>
<g>
	<g class="st5">
		<path class="st6" d="M58.8,128.8c-31.4,0-41.1-26.3-41.1-46.8c0-1.2,51.1,23.4,51.2,22.2"/>
		<path class="st6" d="M66,93.3c0.1,1.2,33.9-12.6,33.9-11.3c0,20.5-11,46.8-41.1,46.8"/>
		<polyline class="st6" points="209.7,88.3 185.7,107 171.5,107 161.6,96.2 151.3,107 144.6,107 139.2,100.1 132.3,107 109,107 
			109,79.5 189.1,79.5 189.1,101.3 209.7,88.3 		"/>
		<path class="st7" d="M59.2,40.4c13.9,0,26.2,6.8,33.7,17.3H109v8.8h80.1v34.9h-16L162,89.1l-12.7,12.2h-4.4l-5.4-5.4l-6.5,5.4h-24
			v6.2H91.9c-7.6,9.7-19.4,15.9-32.7,15.9"/>
		<path class="st7" d="M59.2,123.5c-23,0-41.6-18.6-41.6-41.6c0-23,18.6-41.6,41.6-41.6"/>
		<rect x="88.7" y="107.6" class="st6" width="20.3" height="5.8"/>
		<polyline class="st7" points="209.7,88.3 189.1,101.3 189.1,66.5 209.7,88.3 		"/>
		<circle class="st4" cx="42.6" cy="81.5" r="14.2"/>
		<path class="st6" d="M56.8,81.8c0,0-3.7-10.5-15.1-9.7c-10,0.7-13.3,9.7-13.3,9.7S28,66.2,42.6,66.2
			C57.2,66.2,56.8,81.8,56.8,81.8z"/>
	</g>
	<g>
		<g>
			<path class="st16" d="M114.4,61.3c3.2-2.5,6.6-4.8,9.5-7.6c2.2-2.1,4.3-4.9,4.5-8.1c0.1-2.3-1.3-5.3-4-4.8
				c-3.8,0.7-3.5,5.4-3.2,8.2c0.7,5.1,1.5,10.1,2.4,15.1c0.1,0.4,0.7,0.3,0.7-0.1c0-2.3,0.9-4.4,2.6-6.1c-0.2-0.1-0.4-0.1-0.6-0.2
				c0.4,1.7,0.9,3.7,2.7,4.3c1.9,0.7,3-0.7,3.6-2.3c1.9-4.6,1.8-9.8,0-14.3c-0.1-0.3-0.6-0.4-0.7,0c-0.8,3-1.2,6.1-1.1,9.2
				c0,1.6,0.1,3.1,0.4,4.7c0.2,1,0.4,2,1.2,2.7c1.7,1.4,3.7-0.5,4.5-2c1.4-2.4,1.9-5.3,1.7-8.1c-0.2,0-0.5,0.1-0.7,0.1
				c1.4,6,1.4,12.2,0,18.3c0.2-0.1,0.4-0.1,0.6-0.2c-4.6-2.8-5-9.5-0.5-12.7c2.5-1.7,6.7-2.4,7.3-5.9c0.1-0.3-0.2-0.5-0.5-0.5
				c-2.9,0.6-2.8,4.6-0.4,5.8c3.4,1.7,6.4-1.6,7.3-4.5c-0.2-0.1-0.5-0.1-0.7-0.2c-0.6,2.2-1,6.2,1.3,7.7c2,1.3,4.5-0.6,5.9-2
				c0.3-0.3-0.2-0.9-0.5-0.5c-1.2,1.1-3.6,3.1-5.2,1.7c-1.7-1.5-1.3-4.8-0.7-6.7c0.1-0.5-0.6-0.7-0.7-0.2c-0.8,2.3-2.5,4.8-5.3,4.4
				c-1.2-0.2-2.3-0.9-2.4-2.2c-0.1-1.1,0.5-2.2,1.6-2.5c-0.2-0.2-0.3-0.3-0.5-0.5c-0.4,2.3-2.7,3.2-4.6,4.1c-1.9,0.9-3.7,2-4.8,3.9
				c-2.4,3.9-1,9,2.9,11.3c0.2,0.1,0.5,0,0.6-0.2c1.4-6.2,1.4-12.5,0-18.7c-0.1-0.4-0.8-0.3-0.7,0.1c0.2,2.3-0.2,4.6-1.1,6.7
				c-0.4,1-1,2.1-1.9,2.6c-1.6,1-2.5-0.3-2.8-1.7c-0.9-4.6-0.5-9.6,0.7-14c-0.2,0-0.5,0-0.7,0c1.3,3.4,1.7,7.1,1,10.6
				c-0.3,1.4-0.8,4.3-2.2,5.1c-2.3,1.2-3.3-2.3-3.7-3.8c-0.1-0.3-0.4-0.4-0.6-0.2c-1.8,1.8-2.8,4.1-2.8,6.6c0.2,0,0.5-0.1,0.7-0.1
				c-0.9-4.5-1.6-9-2.2-13.6c-0.3-2.2-1-5.1,0.2-7.2c1.3-2.2,4.1-2.2,5,0.2c1.3,3.6-1.5,7.3-3.9,9.7c-2.9,2.8-6.3,5.2-9.5,7.6
				C113.4,61.1,114,61.6,114.4,61.3L114.4,61.3z"/>
		</g>
	</g>
	<rect x="162.2" y="52.8" class="st17" width="14.3" height="9.7"/>
	<polygon class="st18" points="164,51.1 166.3,46 169,51.1 183.6,26.7 169.2,60.6 	"/>
</g>
</svg>
