<svg id="Layer_1" data-name="Layer 1" xmlns="http://www.w3.org/2000/svg" viewBox="0 0 322 302"><defs><style>.cls-1{fill:#9bdaf1;}.cls-2{fill:none;}.cls-3{fill:#4aa564;}.cls-4{fill:#205393;}.cls-5{fill:#fad980;}.cls-6{fill:#00a6d2;}.cls-7{fill:#f9c642;}.cls-8{fill:#102e51;}</style></defs><title>Hero heart</title><path class="cls-1" d="M160.67,242s109.84-65,109.84-128a60.53,60.53,0,0,0-60.69-60.69A59.7,59.7,0,0,0,161,78.09c-11.21-14.84-28.69-24.74-48.81-24.74A60.53,60.53,0,0,0,51.5,114c-.66,63,109.17,128,109.17,128"/><path class="cls-2" d="M160.67,242s109.84-65,109.84-128a60.53,60.53,0,0,0-60.69-60.69A59.7,59.7,0,0,0,161,78.09c-11.21-14.84-28.69-24.74-48.81-24.74A60.53,60.53,0,0,0,51.5,114c-.66,63,109.17,128,109.17,128"/><path class="cls-1" d="M160.67,242s109.84-65,109.84-128a60.53,60.53,0,0,0-60.69-60.69A59.7,59.7,0,0,0,161,78.09c-11.21-14.84-28.69-24.74-48.81-24.74A60.53,60.53,0,0,0,51.5,114c-.66,63,109.17,128,109.17,128"/><path class="cls-3" d="M269.75,54.11a84.16,84.16,0,0,0-59.93-24.76A85.26,85.26,0,0,0,171,38.69a82.53,82.53,0,0,0-10.1,6.16A84.55,84.55,0,0,0,27.5,113.91c-.3,33.39,20.72,69,62.47,105.75a430,430,0,0,0,58.48,43l12.22,7.23,12.22-7.23a412.42,412.42,0,0,0,35-23.9,5.31,5.31,0,0,0,9.1-3.72,5.25,5.25,0,0,0-.77-2.72c5-3.93,10.05-8.15,15.17-12.65,41.85-36.76,63.08-72.3,63.08-105.64A84.18,84.18,0,0,0,269.75,54.11Zm-58,184.25a3.31,3.31,0,1,1,3.31-3.31A3.31,3.31,0,0,1,211.72,238.36Zm18.39-20.18c-5.13,4.5-10.24,8.73-15.19,12.66a5.25,5.25,0,0,0-3.2-1.1,5.31,5.31,0,0,0-4.9,7.36A412.87,412.87,0,0,1,171.87,261l-11.2,6.63L149.47,261a428,428,0,0,1-58.18-42.79C50,181.77,29.2,146.7,29.5,113.92A82.57,82.57,0,0,1,160.86,47.31a81.64,81.64,0,0,1,11-6.84,83.12,83.12,0,0,1,37.94-9.12A82.54,82.54,0,0,1,292.51,114C292.51,146.77,271.51,181.81,230.11,218.18Z"/><path class="cls-4" d="M288.13,35.72A110,110,0,0,0,209.82,3.35a111.52,111.52,0,0,0-49,11.34A110.32,110.32,0,0,0,112.19,3.35,112.25,112.25,0,0,0,94.93,4.7,5.3,5.3,0,0,0,84.65,6.51c0,.09,0,.18,0,.27a110.54,110.54,0,0,0-83.17,107C1.17,155,25.16,197.21,72.78,239.17a460,460,0,0,0,62.43,45.88l25.46,15.06,25.46-15.06a462.12,462.12,0,0,0,62.46-45.83c19-16.72,34.49-33.63,45.93-50.25,17.24-25,26-50.24,26-74.93A110,110,0,0,0,288.13,35.72ZM90,3.2a3.31,3.31,0,1,1-3.31,3.31A3.31,3.31,0,0,1,90,3.2ZM247.27,237.72a460.81,460.81,0,0,1-62.16,45.61l-24.44,14.46-24.44-14.46a456.81,456.81,0,0,1-62.12-45.66C26.92,196.1,3.17,154.42,3.5,113.78a108.53,108.53,0,0,1,81.64-105A5.3,5.3,0,0,0,95.25,6.67a110.6,110.6,0,0,1,16.94-1.32,108.41,108.41,0,0,1,48.63,11.57,109.42,109.42,0,0,1,49-11.57A108.54,108.54,0,0,1,318.51,114C318.51,154.58,294.54,196.19,247.27,237.72Z"/><path class="cls-5" d="M260.56,63.3a71.87,71.87,0,0,0-99.67-1.7A71.55,71.55,0,0,0,40.5,114a75.23,75.23,0,0,0,4.57,25.77,5.29,5.29,0,0,0,2.57,9.93,5,5,0,0,0,1.45-.23q13.78,29,49.48,60.46a413.66,413.66,0,0,0,56.5,41.57l5.6,3.32,5.6-3.32a417.59,417.59,0,0,0,56.58-41.56c38.92-34.19,58.66-66.45,58.66-95.88A71.25,71.25,0,0,0,260.56,63.3ZM44.32,144.37a3.32,3.32,0,1,1,3.32,3.31A3.32,3.32,0,0,1,44.32,144.37Zm177.21,64a415.14,415.14,0,0,1-56.28,41.35l-4.58,2.71-4.58-2.71a412.65,412.65,0,0,1-56.2-41.35c-23.6-20.79-40-40.81-49-59.85a5.29,5.29,0,0,0-3.23-9.5,4.9,4.9,0,0,0-.67.07A73.11,73.11,0,0,1,42.5,114,69.56,69.56,0,0,1,160.9,64.38,69.66,69.66,0,0,1,279.51,114C279.51,142.87,260,174.62,221.53,208.41Z"/><path class="cls-6" d="M309.94,95.69a5.32,5.32,0,0,0-5.29-5.31,97.59,97.59,0,0,0-94.83-74A98.31,98.31,0,0,0,165,27.13c-1.4.73-2.78,1.48-4.14,2.27A97.57,97.57,0,0,0,14.5,113.85C14.18,151.16,36.69,190,81.38,229.41a444.19,444.19,0,0,0,60.45,44.45L160.67,285l18.84-11.15A448.51,448.51,0,0,0,240,229.45c44.79-39.34,67.5-78.17,67.5-115.41a99.51,99.51,0,0,0-.92-13.42A5.33,5.33,0,0,0,309.94,95.69ZM238.69,228a444.77,444.77,0,0,1-60.2,44.19l-17.82,10.54-17.82-10.54A440.48,440.48,0,0,1,82.7,227.91c-44.24-39-66.51-77.35-66.2-114A95.6,95.6,0,0,1,160.86,31.72c1.66-1,3.35-1.92,5.06-2.81a96.28,96.28,0,0,1,43.9-10.56,95.56,95.56,0,0,1,92.86,72.41A5.3,5.3,0,0,0,304.62,101h0a97.26,97.26,0,0,1,.88,13C305.51,150.68,283,189,238.69,228ZM304.62,99.09a3.4,3.4,0,1,1,3.4-3.4A3.4,3.4,0,0,1,304.62,99.09Z"/><path class="cls-7" d="M233.17,58a61.34,61.34,0,0,0-48.59.79A27.92,27.92,0,1,0,233.17,58Z"/><path class="cls-8" d="M234.59,111l-42.38,42.26a22.57,22.57,0,0,1-14.54,6.21h-3.46c-2-1.35-2.61-4.08-2.74-6.68a10.09,10.09,0,0,0,1.46-.68,23.39,23.39,0,0,0,3.74.29c11.12,0,16.86-5,18.19-10.26-2.05,1.08-4.37-.75-5.45-3.2-2.35-5.34,1.52-10.93-3.34-23a28.59,28.59,0,0,0-2.32-4.94c-.11-.22-.23-.44-.35-.66v.09a26.64,26.64,0,0,0-22.61-13c-13.64,0-24.93,10.77-26.8,24.78-1.66,7.93.5,12.41-1.4,16.72-1.08,2.45-3.4,4.28-5.44,3.2,1.33,5.3,7.07,10.26,18.19,10.26a28.6,28.6,0,0,0,3.47-.2,12.7,12.7,0,0,0,1.46.67c-.05,2.6-.67,5.31-2.72,6.6h-3.21s-8.85-.52-14.94-6.61l-43-42.14c-9.65-9.65-24.12,4.82-14.47,14.47L131,183.34a8.69,8.69,0,0,1,2.63,6.14v34.38c15.54,11.34,27,18.16,27,18.16s11.83-7,27.72-18.63V189.48a8.66,8.66,0,0,1,2.64-6.14l58-57.91C258.7,115.78,244.23,101.31,234.59,111Z"/></svg>